<?xml version="1.0" standalone="no"?>
<!DOCTYPE svg PUBLIC "-//W3C//DTD SVG 20010904//EN"
 "http://www.w3.org/TR/2001/REC-SVG-20010904/DTD/svg10.dtd">
<svg version="1.0" xmlns="http://www.w3.org/2000/svg"
 width="700.000000pt" height="700.000000pt" viewBox="0 0 700.000000 700.000000"
 preserveAspectRatio="xMidYMid meet">
<metadata>
Created by potrace 1.14, written by Peter Selinger 2001-2017
</metadata>
<g transform="translate(0.000000,700.000000) scale(0.100000,-0.100000)"
fill="#000000" stroke="none">
<path d="M1619 6996 c-2 -2 -38 -7 -78 -10 -41 -4 -77 -9 -80 -11 -4 -2 -24
-6 -46 -9 -45 -7 -179 -43 -210 -55 -11 -5 -54 -21 -95 -36 -305 -111 -614
-359 -810 -651 -122 -179 -231 -440 -264 -629 -3 -16 -8 -41 -11 -55 -3 -14
-8 -43 -12 -65 -4 -22 -8 -904 -9 -1960 l-2 -1920 24 -130 c28 -156 33 -174
74 -290 17 -49 32 -98 33 -107 1 -9 5 -14 9 -12 7 4 10 -10 7 -32 0 -4 4 -10
9 -13 5 -3 17 -21 26 -39 14 -28 15 -36 4 -50 -11 -15 -11 -15 3 -4 14 10 18
10 23 -3 3 -8 4 -21 2 -27 -1 -7 -1 -9 2 -5 2 5 24 -21 48 -58 44 -67 51 -80
36 -71 -5 3 -9 -1 -9 -9 0 -11 4 -12 13 -4 9 7 15 5 23 -10 6 -11 17 -25 23
-33 7 -7 25 -30 41 -50 15 -20 59 -70 97 -110 39 -39 70 -76 70 -80 0 -4 6 -7
13 -6 6 2 11 -4 9 -12 -2 -8 0 -12 4 -8 4 4 34 -15 68 -42 80 -65 75 -62 119
-89 30 -18 36 -26 25 -33 -9 -7 -8 -8 5 -4 21 7 61 -17 49 -29 -4 -5 -1 -5 6
-1 8 5 28 -2 50 -16 20 -13 52 -30 70 -37 28 -12 31 -16 20 -30 -11 -14 -11
-14 3 -3 14 10 25 9 63 -6 26 -10 44 -21 41 -24 -4 -3 0 -6 7 -5 23 1 78 -15
78 -23 0 -4 6 -8 12 -7 30 1 49 -4 45 -10 -3 -5 7 -9 21 -10 60 -4 102 -16 95
-26 -3 -6 -1 -7 6 -3 6 4 19 2 28 -6 9 -7 14 -8 10 -2 -4 7 18 6 66 -4 63 -14
318 -16 1982 -18 1051 -1 1942 1 1980 6 39 5 90 12 115 16 25 4 53 7 63 8 9 0
17 3 17 6 0 3 11 7 25 8 14 1 50 10 80 21 34 12 53 15 48 8 -3 -7 2 -5 13 4
10 8 42 24 69 33 28 10 87 36 133 57 94 44 100 46 81 21 -13 -15 -12 -16 3 -3
10 7 15 17 12 22 -3 5 3 12 13 16 10 3 37 19 60 35 47 32 58 35 50 13 -4 -8
-2 -17 3 -20 4 -3 7 6 5 20 -2 19 6 30 34 47 19 12 66 48 104 80 38 32 74 55
80 51 6 -3 7 -1 3 5 -7 12 7 28 63 75 18 15 29 27 25 27 -4 0 1 9 11 20 10 11
22 17 27 14 4 -3 7 -1 6 4 -2 5 8 23 21 40 20 27 27 30 40 20 13 -10 14 -10 4
2 -10 10 -9 19 5 42 9 16 22 26 29 24 6 -3 10 0 7 7 -2 7 14 38 36 71 22 32
40 63 40 68 0 5 4 7 9 4 5 -3 8 2 7 12 0 9 4 16 11 15 8 -2 10 4 6 14 -5 12
-3 14 7 8 8 -5 11 -4 6 3 -4 6 4 33 18 59 24 48 77 179 80 198 1 5 6 17 11 25
5 8 10 26 11 39 2 14 8 27 14 29 5 2 8 8 5 12 -3 5 -1 28 5 52 6 24 12 49 12
56 1 6 4 12 7 12 3 0 6 12 7 28 0 15 5 59 10 97 5 41 9 852 9 1975 0 2064 2
1966 -55 2185 -28 110 -63 202 -121 322 -260 536 -784 904 -1384 972 -74 9
-3807 15 -3816 7z"/>
<path d="M436 553 c-6 -14 -5 -15 5 -6 7 7 10 15 7 18 -3 3 -9 -2 -12 -12z"/>
<path d="M6455 409 c-4 -6 -5 -12 -2 -15 2 -3 7 2 10 11 7 17 1 20 -8 4z"/>
<path d="M6255 271 c-3 -5 -2 -12 3 -15 5 -3 9 1 9 9 0 17 -3 19 -12 6z"/>
<path d="M873 205 c0 -8 4 -12 9 -9 5 3 6 10 3 15 -9 13 -12 11 -12 -6z"/>
<path d="M6026 162 c-3 -5 1 -9 9 -9 8 0 12 4 9 9 -3 4 -7 8 -9 8 -2 0 -6 -4
-9 -8z"/>
<path d="M6066 158 c3 -4 9 -8 15 -8 5 0 9 4 9 8 0 5 -7 9 -15 9 -8 0 -12 -4
-9 -9z"/>
<path d="M5955 141 c-3 -5 -2 -12 3 -15 5 -3 9 1 9 9 0 17 -3 19 -12 6z"/>
<path d="M1010 126 c0 -2 7 -7 16 -10 8 -3 12 -2 9 4 -6 10 -25 14 -25 6z"/>
<path d="M990 100 c0 -5 5 -10 11 -10 5 0 7 5 4 10 -3 6 -8 10 -11 10 -2 0 -4
-4 -4 -10z"/>
<path d="M1029 83 c-13 -16 -12 -17 4 -4 9 7 17 15 17 17 0 8 -8 3 -21 -13z"/>
<path d="M1130 79 c0 -5 5 -7 10 -4 6 3 10 8 10 11 0 2 -4 4 -10 4 -5 0 -10
-5 -10 -11z"/>
<path d="M1096 67 c3 -10 9 -15 12 -12 3 3 0 11 -7 18 -10 9 -11 8 -5 -6z"/>
<path d="M1036 42 c-3 -5 1 -9 9 -9 8 0 12 4 9 9 -3 4 -7 8 -9 8 -2 0 -6 -4
-9 -8z"/>
<path d="M1293 31 c0 -11 5 -18 9 -15 4 3 5 11 1 19 -7 21 -12 19 -10 -4z"/>
</g>
</svg>
