<svg width="1007" height="151" viewBox="0 0 1007 151" fill="none" xmlns="http://www.w3.org/2000/svg">
<g filter="url(#filter0_d_1404_6)">
<path d="M202.595 30.5315C201.809 31.0899 196.831 29.9731 194.839 28.5585C194.839 28.5585 191.747 27.479 191.59 26.325C191.433 25.2826 189.546 24.9848 188.289 24.2031C186.717 23.2352 184.305 21.9696 182.419 22.1929C180.428 21.709 178.28 21.1134 176.183 19.9966C174.663 19.1776 172.514 17.0185 170.89 17.2046C169.475 16.4973 162.925 12.4025 161.458 12.5886C157.789 13.7798 157.947 10.7645 156.165 12.0302C155.012 10.9879 153.23 11.0251 151.605 9.64777C149.3 10.0572 151.029 11.4346 148.199 11.4346C147.78 12.3652 145.16 12.1791 144.059 12.7003C143.064 12.2908 141.911 11.0996 140.653 11.6207C138.714 11.1741 134.522 11.658 134.102 10.7273C132.373 10.5784 129.544 11.5091 128.6 10.5412C126.818 10.5412 124.355 11.6207 123.045 10.6901C121.368 10.8017 119.01 10.2062 118.067 9.5361C117.385 9.57331 113.56 10.355 113.036 9.98277C111.778 10.0945 110.364 11.8813 109.839 12.5514C108.634 12.7375 106.748 13.0726 106.328 12.477C104.808 12.6631 102.293 12.6258 101.927 13.4448C99.5678 13.5937 94.1181 13.2587 93.437 12.9609C92.7552 13.4076 91.9167 13.482 91.5503 13.8171C90.6069 13.1098 87.5677 12.812 85.9957 12.9981C84.3188 11.4719 80.86 11.658 78.9733 11.4346C76.6152 11.1368 74.676 10.504 73.104 9.75943C70.4837 8.53099 68.9116 7.04196 68.1255 6.48357C65.1385 9.38718 64.0904 7.19083 62.099 7.37696C61.837 6.33465 60.5793 9.05217 59.8457 8.00981C57.0682 8.30766 51.5658 9.05217 51.5658 8.15873C48.0547 8.64266 42.133 10.4667 41.1897 9.79664C38.5695 11.0623 33.5387 9.57331 32.281 11.5091C30.6565 9.90836 30.8137 11.8069 30.1324 11.9558C27.4598 12.5514 23.5819 14.0777 22.429 13.7426C22.2718 14.301 17.8698 15.5667 15.6165 15.8273C15.3544 16.1251 14.6208 15.9017 14.4111 15.8273C13.5727 16.4229 11.1621 17.428 9.7472 17.1674C9.7472 17.6886 7.70341 18.4703 6.81255 18.0608C4.82119 19.9221 0.628851 20.1827 0 20.6294L7.09669e-05 0H1007V34.8497C1007 34.8497 997.671 35.557 996.468 36.4132C994.944 35.8548 988.713 36.7855 988.713 38.349C987.035 39.5774 982.007 37.3811 976.657 38.4234C971.314 39.503 969.846 39.8008 969.846 40.9175C968.328 39.8008 960.937 39.8008 955.279 42.3322C949.615 44.8635 942.335 39.354 938.769 39.354C935.209 39.354 933.895 40.7314 933.895 42.3322C933.055 42.481 931.853 42.2577 931.957 41.8854C930.909 41.5876 928.915 41.6621 923.678 43.7839C913.3 48.0277 897.95 42.2204 896.006 41.9226C895.272 41.811 895.223 41.1409 893.964 40.7686C893.545 41.2526 892.132 41.2898 891.503 40.8431C890.559 41.4015 889.664 40.3591 889.559 39.9124C887.622 39.9124 888.775 41.2898 885.37 42.2577C881.964 43.2255 868.705 41.2526 865.824 41.2526C862.943 41.2526 861.474 41.9971 859.013 42.8533C856.649 42.1088 854.293 42.63 854.712 43.7839C852.195 44.9007 849.314 42.63 844.335 42.1832C844.076 41.5132 843.083 41.5876 842.768 42.1088C836.845 42.1088 837.628 38.4607 835.95 38.9446C834.279 39.4285 835.481 38.0884 832.964 39.8752C832.964 38.5351 826.257 36.4504 821.698 38.0139C817.138 39.5774 813.579 36.2271 810.957 34.9242C808.334 33.6212 807.915 35.4826 805.089 36.1154C802.257 36.7482 805.089 34.6263 800.264 34.6263C795.446 34.6263 797.383 35.1103 794.397 35.557C794.656 34.2541 793.817 35.222 793.082 33.6585C791.984 31.3877 789.782 33.6585 783.656 35.4081C778.782 33.9191 763.635 34.7381 758.082 38.684C757.138 39.354 755.096 38.4979 754.306 38.9446C751.005 40.8431 750.481 40.5453 750.222 41.9599C750.012 41.9599 748.383 41.2898 748.068 41.2526C748.068 41.6248 748.334 41.9971 748.439 42.3694C746.341 42.3694 743.194 40.6569 743.194 40.6569C737.383 42.1088 734.131 41.1781 730.725 40.9175C727.32 40.6569 727.998 37.4183 726.005 39.2424C725.383 39.7263 720.089 37.4183 716.578 39.9497C713.068 42.481 706.725 42.8533 706.725 42.8533C704.788 42.1832 691.841 44.7518 689.692 46.2781C687.594 47.7687 686.545 47.0224 685.228 46.0851L685.133 46.0175C684.085 46.762 675.333 44.3051 671.77 46.8365C670.722 46.0547 669.621 46.5014 670.355 47.6182C666.791 49.07 661.918 48.1394 655.786 48.5116C648.817 48.9584 652.904 51.9366 647.769 51.4897C646.825 51.4152 644.625 51.5641 645.148 52.4203C640.642 52.4203 635.559 53.7979 633.043 55.0262C629.951 56.5154 628.589 54.2072 621.671 54.8402C614.806 55.4355 612.082 58.8604 609.723 58.8604C607.365 58.8604 599.714 58.3018 598.823 57.6693C598.561 57.8926 597.408 58.1158 597.094 58.2646C593.426 60.1631 588.447 57.7065 585.46 58.3767C582.211 59.1209 576.552 55.4727 573.564 57.5949C570.577 59.7166 566.438 56.9247 563.188 56.2917C563.188 57.0363 559.992 55.808 556.219 56.5899C552.446 57.3712 543.118 52.7929 543.118 52.7929C539.449 52.0854 538.82 54.6914 536.829 55.1378C534.785 55.5848 529.545 52.6063 525.981 54.4676C522.418 56.3289 520.479 53.3509 517.964 52.8673C517.387 53.7979 513.614 51.9366 513.614 51.9366C510.05 53.0905 509.159 50.8194 506.644 49.8144C504.076 48.8094 495.535 48.1394 495.01 49.926C494.487 51.7501 489.98 48.8094 487.517 50.559C485.106 52.3087 478.084 50.559 470.328 51.1176C462.572 51.6757 467.341 51.4524 468.075 52.9789C467.393 53.4998 460.371 52.1599 456.336 52.1599C452.301 52.1599 454.502 50.8194 451.672 50.8194C448.842 50.8194 450.781 52.0482 449.209 51.7501C447.637 51.4524 439.776 50.8195 438.1 53.3137C436.423 55.808 435.113 53.9467 435.113 53.9467C435.113 56.3289 427.567 52.7179 425.575 52.3459C425.994 53.9467 412.369 56.7387 411.426 55.0634C410.483 53.3881 397.486 54.0584 396.333 53.2021C395.18 52.3459 391.984 50.8194 391.984 52.3831C391.984 53.9467 381.136 50.8567 378.621 52.6435C376.105 54.4676 373.8 52.6435 373.8 52.6435C372.909 53.5742 372.961 51.8245 371.965 52.5319C368.244 55.175 356.087 54.542 353.728 54.542C351.265 54.542 339.841 52.7551 336.959 54.0584C336.121 54.4304 336.855 52.9045 335.754 53.6858C334.968 54.2444 320.924 53.1649 319.299 53.2765C317.674 53.4254 316.312 53.3509 315.421 53.4998C314.53 53.6486 315.421 52.7551 315.893 51.7129C314.425 52.5319 315.159 51.7873 314.688 51.6757C311.857 50.9688 295.508 50.6334 294.302 49.7772C292.835 48.735 275.122 45.4963 273.393 46.7248C271.926 47.7671 263.907 43.7095 260.03 42.8905C258.825 42.63 258.563 44.2307 258.038 43.1511C257.409 41.9226 243.68 38.8701 238.335 38.8701C232.989 38.8701 230.055 36.8972 230.055 35.2965C230.055 33.6957 225.39 33.9563 225.39 35.2965C225.39 36.6738 223.504 35.2965 223.504 33.733C223.504 32.3556 221.094 32.6162 218.631 33.8074C217.844 34.1797 218.159 33.1746 217.268 33.6212C215.486 34.5147 210.455 31.6855 207.678 32.6162C206.997 32.8395 206.735 31.8717 206.211 32.0205C206.211 32.0205 203.381 29.9731 202.595 30.5315Z" fill="#FAE5E2"/>
</g>
<defs>
<filter id="filter0_d_1404_6" x="-38.8" y="0" width="1084.6" height="150.8" filterUnits="userSpaceOnUse" color-interpolation-filters="sRGB">
<feFlood flood-opacity="0" result="BackgroundImageFix"/>
<feColorMatrix in="SourceAlpha" type="matrix" values="0 0 0 0 0 0 0 0 0 0 0 0 0 0 0 0 0 0 127 0" result="hardAlpha"/>
<feOffset dy="53"/>
<feGaussianBlur stdDeviation="19.4"/>
<feComposite in2="hardAlpha" operator="out"/>
<feColorMatrix type="matrix" values="0 0 0 0 0 0 0 0 0 0 0 0 0 0 0 0 0 0 0.12 0"/>
<feBlend mode="normal" in2="BackgroundImageFix" result="effect1_dropShadow_1404_6"/>
<feBlend mode="normal" in="SourceGraphic" in2="effect1_dropShadow_1404_6" result="shape"/>
</filter>
</defs>
</svg>
