<svg width="995" height="113" viewBox="0 0 1006 113" fill="none" xmlns="http://www.w3.org/2000/svg">
<path d="M0 112.516H1006V28.3662C1006 28.3662 996.68 29.0734 995.479 29.9297C993.956 29.3713 987.731 30.3019 987.731 31.8654C986.055 33.0939 981.031 30.8975 975.687 31.9398C970.35 33.0194 968.883 33.3172 968.883 34.434C967.367 33.3172 959.982 33.3172 954.331 35.8486C948.672 38.3799 941.399 32.8705 937.836 32.8705C934.281 32.8705 932.967 34.2478 932.967 35.8486C932.129 35.9975 930.927 35.7741 931.032 35.4019C929.984 35.104 927.993 35.1785 922.76 37.3004C912.393 41.5441 897.059 35.7369 895.116 35.4391C894.383 35.3274 894.334 34.6574 893.076 34.285C892.657 34.769 891.246 34.8062 890.617 34.3595C889.674 34.9179 888.78 33.8756 888.675 33.4289C886.74 33.4289 887.893 34.8062 884.49 35.7741C881.088 36.742 867.843 34.769 864.964 34.769C862.086 34.769 860.619 35.5135 858.16 36.3697C855.799 35.6252 853.444 36.1464 853.863 37.3004C851.348 38.4171 848.47 36.1464 843.496 35.6997C843.238 35.0296 842.245 35.104 841.931 35.6252C836.014 35.6252 836.796 31.9771 835.12 32.461C833.45 32.9449 834.652 31.6048 832.137 33.3917C832.137 32.0515 825.437 29.9669 820.882 31.5304C816.327 33.0939 812.771 29.7435 810.151 28.4406C807.532 27.1377 807.112 28.999 804.29 29.6318C801.461 30.2647 804.29 28.1428 799.47 28.1428C794.656 28.1428 796.591 28.6268 793.608 29.0734C793.867 27.7705 793.028 28.7384 792.295 27.1749C791.198 24.9041 788.997 27.1749 782.878 28.9245C778.008 27.4355 762.876 28.2545 757.329 32.2004C756.386 32.8705 754.346 32.0143 753.557 32.461C750.259 34.3595 749.736 34.0617 749.477 35.4763C749.267 35.4763 747.64 34.8062 747.325 34.769C747.325 35.1413 747.591 35.5135 747.696 35.8858C745.6 35.8858 742.456 34.1734 742.456 34.1734C736.65 35.6252 733.402 34.6946 730 34.434C726.598 34.1734 727.275 30.9347 725.284 32.7588C724.662 33.2427 719.374 30.9347 715.867 33.4661C712.36 35.9975 706.023 36.3697 706.023 36.3697C704.088 35.6997 691.154 38.2683 689.007 39.7945C686.911 41.2851 685.864 40.5388 684.547 39.6015L684.453 39.5339C683.406 40.2784 674.663 37.8215 671.103 40.3529C670.056 39.5712 668.956 40.0178 669.689 41.1346C666.129 42.5864 661.261 41.6558 655.135 42.0281C648.173 42.4748 652.256 45.453 647.125 45.0061C646.183 44.9317 643.985 45.0805 644.508 45.9367C640.006 45.9367 634.928 47.3143 632.415 48.5426C629.326 50.0319 627.965 47.7236 621.054 48.3566C614.196 48.9519 611.474 52.3768 609.118 52.3768C606.762 52.3768 599.118 51.8183 598.228 51.1858C597.967 51.409 596.815 51.6322 596.501 51.781C592.836 53.6795 587.863 51.223 584.879 51.8932C581.633 52.6373 575.979 48.9891 572.995 51.1113C570.011 53.2331 565.875 50.4411 562.629 49.8081C562.629 50.5528 559.436 49.3245 555.666 50.1063C551.897 50.8876 542.578 46.3093 542.578 46.3093C538.913 45.6019 538.285 48.2078 536.296 48.6543C534.254 49.1012 529.019 46.1228 525.459 47.984C521.899 49.8453 519.962 46.8674 517.449 46.3837C516.874 47.3143 513.104 45.453 513.104 45.453C509.544 46.6069 508.654 44.3359 506.141 43.3308C503.576 42.3259 495.043 41.6558 494.519 43.4424C493.996 45.2665 489.493 42.3259 487.033 44.0754C484.624 45.8251 477.609 44.0754 469.861 44.634C462.113 45.1921 466.877 44.9689 467.61 46.4953C466.929 47.0162 459.914 45.6763 455.883 45.6763C451.852 45.6763 454.05 44.3359 451.224 44.3359C448.397 44.3359 450.334 45.5647 448.763 45.2665C447.193 44.9689 439.34 44.3359 437.664 46.8302C435.989 49.3245 434.681 47.4632 434.681 47.4632C434.681 49.8453 427.142 46.2344 425.152 45.8623C425.571 47.4632 411.96 50.2551 411.017 48.5798C410.075 46.9046 397.091 47.5748 395.94 46.7186C394.788 45.8623 391.595 44.3359 391.595 45.8995C391.595 47.4632 380.758 44.3731 378.245 46.16C375.732 47.9841 373.429 46.16 373.429 46.16C372.539 47.0906 372.591 45.3409 371.596 46.0483C367.879 48.6915 355.733 48.0585 353.377 48.0585C350.917 48.0585 339.504 46.2716 336.624 47.5748C335.787 47.9468 336.52 46.4209 335.421 47.2022C334.635 47.7608 320.605 46.6813 318.982 46.793C317.359 46.9418 315.998 46.8674 315.108 47.0162C314.218 47.165 315.108 46.2716 315.579 45.2293C314.113 46.0483 314.846 45.3037 314.375 45.1921C311.548 44.4852 295.214 44.1498 294.01 43.2936C292.544 42.2514 274.849 39.0127 273.121 40.2412C271.656 41.2835 263.645 37.2259 259.772 36.4069C258.568 36.1464 258.306 37.7471 257.782 36.6675C257.154 35.4391 243.438 32.3865 238.098 32.3865C232.758 32.3865 229.826 30.4136 229.826 28.8129C229.826 27.2121 225.167 27.4727 225.167 28.8129C225.167 30.1902 223.282 28.8129 223.282 27.2494C223.282 25.872 220.874 26.1326 218.414 27.3238C217.628 27.6961 217.942 26.691 217.052 27.1377C215.272 28.0311 210.246 25.202 207.472 26.1326C206.791 26.3559 206.53 25.3881 206.006 25.537C206.006 25.537 203.179 23.4895 202.394 24.0479C201.609 24.6063 196.635 23.4895 194.646 22.075C194.646 22.075 191.557 20.9954 191.4 19.8414C191.243 18.7991 189.358 18.5013 188.102 17.7195C186.531 16.7516 184.122 15.486 182.238 15.7093C180.249 15.2254 178.103 14.6298 176.008 13.513C174.49 12.694 172.343 10.5349 170.72 10.721C169.307 10.0138 162.763 5.91893 161.297 6.10506C157.632 7.29625 157.79 4.28097 156.01 5.54667C154.858 4.50431 153.078 4.54156 151.455 3.1642C149.151 3.57366 150.879 4.95103 148.052 4.95103C147.633 5.88168 145.016 5.69555 143.916 6.21673C142.922 5.80721 141.77 4.61603 140.513 5.13716C138.576 4.69049 134.388 5.17441 133.969 4.24377C132.241 4.09484 129.415 5.02549 128.472 4.05764C126.692 4.05764 124.232 5.13716 122.923 4.20651C121.247 4.31818 118.892 3.72259 117.949 3.05253C117.269 3.08974 113.447 3.87146 112.923 3.4992C111.667 3.61092 110.254 5.39775 109.73 6.0678C108.526 6.25393 106.642 6.58899 106.222 5.99339C104.704 6.17952 102.191 6.14227 101.825 6.96125C99.4689 7.11017 94.0247 6.77512 93.3442 6.47732C92.6631 6.92399 91.8254 6.99845 91.4594 7.3335C90.5169 6.62619 87.4808 6.3284 85.9103 6.51452C84.235 4.98828 80.7797 5.17441 78.8949 4.95103C76.5391 4.65323 74.6019 4.02038 73.0314 3.27587C70.4137 2.04742 68.8432 0.558388 68.0579 0C65.0738 2.90361 64.0267 0.707261 62.0374 0.893391C61.7756 -0.148923 60.5191 2.5686 59.7862 1.52624C57.0115 1.82409 51.5146 2.5686 51.5146 1.67516C48.007 2.15909 42.0912 3.98318 41.1488 3.31307C38.5312 4.57877 33.5054 3.08974 32.2489 5.02549C30.6261 3.42479 30.7831 5.32329 30.1025 5.47221C27.4326 6.0678 23.5585 7.59409 22.4068 7.25904C22.2497 7.81743 17.8521 9.08313 15.601 9.34372C15.3392 9.64152 14.6063 9.41813 14.3968 9.34372C13.5592 9.93931 11.151 10.9444 9.73752 10.6838C9.73752 11.205 7.69576 11.9867 6.80579 11.5773C4.8164 13.4386 0.628227 13.6991 0 14.1458V112.516Z" fill="#051e4f"/>
</svg>
