<svg width="1417" height="649" viewBox="0 0 1417 649" fill="none" xmlns="http://www.w3.org/2000/svg">
<path d="M285.082 620.531C283.976 621.09 276.97 619.973 274.168 618.559C274.168 618.559 269.817 617.479 269.596 616.325C269.375 615.283 266.72 614.985 264.95 614.203C262.738 613.235 259.345 611.97 256.691 612.193C253.889 611.709 250.866 611.113 247.916 609.997C245.778 609.178 242.754 607.018 240.468 607.205C238.477 606.497 229.26 602.402 227.195 602.589C222.033 603.78 222.254 600.765 219.747 602.03C218.124 600.988 215.617 601.025 213.331 599.648C210.087 600.057 212.52 601.435 208.538 601.435C207.949 602.365 204.262 602.179 202.713 602.7C201.312 602.291 199.69 601.1 197.919 601.621C195.192 601.174 189.292 601.658 188.702 600.727C186.269 600.578 182.287 601.509 180.96 600.541C178.452 600.541 174.987 601.621 173.143 600.69C170.783 600.802 167.465 600.206 166.137 599.536C165.179 599.573 159.796 600.355 159.058 599.983C157.289 600.095 155.298 601.881 154.56 602.551C152.865 602.738 150.21 603.073 149.619 602.477C147.481 602.663 143.942 602.626 143.426 603.445C140.107 603.594 132.438 603.259 131.48 602.961C130.52 603.408 129.341 603.482 128.825 603.817C127.498 603.11 123.221 602.812 121.009 602.998C118.649 601.472 113.782 601.658 111.127 601.435C107.809 601.137 105.08 600.504 102.868 599.759C99.1811 598.531 96.9689 597.042 95.8628 596.484C91.6596 599.387 90.1848 597.191 87.3826 597.377C87.0139 596.335 85.2441 599.052 84.2118 598.01C80.3035 598.308 72.5608 599.052 72.5608 598.159C67.6202 598.643 59.2875 600.467 57.9601 599.797C54.2731 601.062 47.194 599.573 45.4242 601.509C43.1383 599.908 43.3595 601.807 42.4009 601.956C38.6401 602.551 33.1833 604.078 31.561 603.743C31.3398 604.301 25.1455 605.567 21.9747 605.827C21.606 606.125 20.5737 605.902 20.2786 605.827C19.0988 606.423 15.7068 607.428 13.7158 607.167C13.7158 607.689 10.8399 608.47 9.58628 608.061C6.78413 609.922 0.884888 610.183 0 610.629L9.98611e-05 0H1417V624.85C1417 624.85 1403.87 625.557 1402.18 626.413C1400.04 625.855 1391.27 626.786 1391.27 628.349C1388.91 629.577 1381.83 627.381 1374.3 628.423C1366.78 629.503 1364.72 629.801 1364.72 630.918C1362.58 629.801 1352.18 629.801 1344.22 632.332C1336.25 634.864 1326.01 629.354 1320.99 629.354C1315.98 629.354 1314.13 630.731 1314.13 632.332C1312.95 632.481 1311.26 632.258 1311.4 631.885C1309.93 631.588 1307.12 631.662 1299.75 633.784C1285.15 638.028 1263.55 632.22 1260.81 631.923C1259.78 631.811 1259.71 631.141 1257.94 630.769C1257.35 631.253 1255.36 631.29 1254.48 630.843C1253.15 631.402 1251.89 630.359 1251.74 629.912C1249.02 629.912 1250.64 631.29 1245.85 632.258C1241.06 633.226 1222.4 631.253 1218.34 631.253C1214.29 631.253 1212.22 631.997 1208.76 632.853C1205.43 632.109 1202.12 632.63 1202.71 633.784C1199.17 634.901 1195.11 632.63 1188.11 632.183C1187.74 631.513 1186.34 631.588 1185.9 632.109C1177.57 632.109 1178.67 628.461 1176.31 628.945C1173.95 629.429 1175.65 628.088 1172.1 629.875C1172.1 628.535 1162.67 626.45 1156.25 628.014C1149.84 629.577 1144.83 626.227 1141.14 624.924C1137.45 623.621 1136.86 625.483 1132.88 626.115C1128.9 626.748 1132.88 624.626 1126.09 624.626C1119.31 624.626 1122.04 625.11 1117.84 625.557C1118.2 624.254 1117.02 625.222 1115.99 623.659C1114.44 621.388 1111.34 623.658 1102.72 625.408C1095.86 623.919 1074.55 624.738 1066.74 628.684C1065.41 629.354 1062.53 628.498 1061.42 628.945C1056.78 630.843 1056.04 630.545 1055.67 631.96C1055.38 631.96 1053.09 631.29 1052.64 631.253C1052.64 631.625 1053.02 631.997 1053.17 632.369C1050.21 632.369 1045.79 630.657 1045.79 630.657C1037.61 632.109 1033.03 631.178 1028.24 630.918C1023.45 630.657 1024.4 627.418 1021.6 629.242C1020.72 629.726 1013.27 627.418 1008.33 629.95C1003.39 632.481 994.468 632.853 994.468 632.853C991.742 632.183 973.524 634.752 970.5 636.278C967.548 637.769 966.072 637.022 964.218 636.085L964.085 636.017C962.61 636.762 950.295 634.305 945.282 636.836C943.806 636.055 942.258 636.501 943.29 637.618C938.275 639.07 931.418 638.139 922.79 638.512C912.983 638.958 918.735 641.937 911.508 641.49C910.18 641.415 907.084 641.564 907.821 642.42C901.48 642.42 894.327 643.798 890.787 645.026C886.436 646.515 884.519 644.207 874.785 644.84C865.125 645.436 861.291 648.86 857.972 648.86C854.654 648.86 843.887 648.302 842.634 647.669C842.266 647.893 840.643 648.116 840.2 648.265C835.039 650.163 828.034 647.707 823.83 648.377C819.258 649.121 811.294 645.473 807.091 647.595C802.888 649.717 797.062 646.925 792.491 646.292C792.491 647.036 787.993 645.808 782.683 646.59C777.374 647.371 764.248 642.793 764.248 642.793C759.086 642.085 758.201 644.691 755.399 645.138C752.523 645.585 745.149 642.606 740.134 644.468C735.121 646.329 732.392 643.351 728.853 642.867C728.042 643.798 722.732 641.937 722.732 641.937C717.717 643.091 716.464 640.819 712.924 639.814C709.311 638.809 697.292 638.139 696.554 639.926C695.817 641.75 689.475 638.809 686.009 640.559C682.617 642.309 672.735 640.559 661.823 641.118C650.909 641.676 657.619 641.452 658.651 642.979C657.693 643.5 647.811 642.16 642.133 642.16C636.455 642.16 639.552 640.819 635.571 640.819C631.588 640.819 634.317 642.048 632.105 641.75C629.893 641.452 618.831 640.819 616.472 643.314C614.112 645.808 612.269 643.947 612.269 643.947C612.269 646.329 601.65 642.718 598.848 642.346C599.437 643.947 580.265 646.739 578.938 645.063C577.611 643.388 559.322 644.058 557.701 643.202C556.078 642.346 551.58 640.819 551.58 642.383C551.58 643.947 536.316 640.857 532.776 642.644C529.237 644.468 525.992 642.644 525.992 642.644C524.739 643.574 524.812 641.825 523.411 642.532C518.175 645.175 501.068 644.542 497.749 644.542C494.283 644.542 478.208 642.755 474.152 644.058C472.972 644.43 474.005 642.904 472.456 643.686C471.35 644.244 451.588 643.165 449.302 643.277C447.015 643.425 445.098 643.351 443.845 643.5C442.591 643.649 443.845 642.755 444.509 641.713C442.443 642.532 443.476 641.787 442.812 641.676C438.83 640.969 415.824 640.633 414.127 639.777C412.063 638.735 387.138 635.496 384.705 636.725C382.64 637.767 371.357 633.709 365.901 632.891C364.205 632.63 363.836 634.231 363.098 633.151C362.214 631.923 342.894 628.87 335.372 628.87C327.85 628.87 323.722 626.897 323.722 625.296C323.722 623.696 317.158 623.956 317.158 625.296C317.158 626.674 314.504 625.296 314.504 623.733C314.504 622.356 311.112 622.616 307.646 623.807C306.539 624.18 306.982 623.175 305.729 623.621C303.221 624.515 296.142 621.686 292.235 622.616C291.275 622.84 290.907 621.872 290.169 622.021C290.169 622.021 286.188 619.973 285.082 620.531Z" fill="#FAE5E2"/>
</svg>
