<svg width="1006" height="529" viewBox="0 0 1006 529" fill="none" xmlns="http://www.w3.org/2000/svg">
<g clip-path="url(#clip0_1647_4)">
<rect width="1006" height="529" fill="white"/>
<rect width="1006" height="529" fill="#0C2B56"/>
<g filter="url(#filter0_d_1647_4)">
<path d="M201.595 30.5315C200.809 31.0899 195.831 29.9731 193.839 28.5585C193.839 28.5585 190.747 27.479 190.59 26.325C190.433 25.2826 188.546 24.9848 187.289 24.2031C185.717 23.2352 183.305 21.9696 181.419 22.1929C179.428 21.709 177.28 21.1134 175.183 19.9966C173.663 19.1776 171.514 17.0185 169.89 17.2046C168.475 16.4973 161.925 12.4025 160.458 12.5886C156.789 13.7798 156.947 10.7645 155.165 12.0302C154.012 10.9879 152.23 11.0251 150.605 9.64777C148.3 10.0572 150.029 11.4346 147.199 11.4346C146.78 12.3652 144.16 12.1791 143.059 12.7003C142.064 12.2908 140.911 11.0996 139.653 11.6207C137.714 11.1741 133.522 11.658 133.102 10.7273C131.373 10.5784 128.544 11.5091 127.6 10.5412C125.818 10.5412 123.355 11.6207 122.045 10.6901C120.368 10.8017 118.01 10.2062 117.067 9.5361C116.385 9.57331 112.56 10.355 112.036 9.98277C110.778 10.0945 109.364 11.8813 108.839 12.5514C107.634 12.7375 105.748 13.0726 105.328 12.477C103.808 12.6631 101.293 12.6258 100.927 13.4448C98.5678 13.5937 93.1181 13.2587 92.437 12.9609C91.7552 13.4076 90.9167 13.482 90.5503 13.8171C89.6069 13.1098 86.5677 12.812 84.9957 12.9981C83.3188 11.4719 79.86 11.658 77.9733 11.4346C75.6152 11.1368 73.676 10.504 72.104 9.75943C69.4837 8.53099 67.9116 7.04196 67.1255 6.48357C64.1385 9.38718 63.0904 7.19083 61.099 7.37696C60.837 6.33465 59.5793 9.05217 58.8457 8.00981C56.0682 8.30766 50.5658 9.05217 50.5658 8.15873C47.0547 8.64266 41.133 10.4667 40.1897 9.79664C37.5695 11.0623 32.5387 9.57331 31.281 11.5091C29.6565 9.90836 29.8137 11.8069 29.1324 11.9558C26.4598 12.5514 22.5819 14.0777 21.429 13.7426C21.2718 14.301 16.8698 15.5667 14.6165 15.8273C14.3544 16.1251 13.6208 15.9017 13.4111 15.8273C12.5727 16.4229 10.1621 17.428 8.7472 17.1674C8.7472 17.6886 6.70341 18.4703 5.81255 18.0608C3.82119 19.9221 -0.371149 20.1827 -1 20.6294L-0.999929 0H1006V34.8497C1006 34.8497 996.671 35.557 995.468 36.4132C993.944 35.8548 987.713 36.7855 987.713 38.349C986.035 39.5774 981.007 37.3811 975.657 38.4234C970.314 39.503 968.846 39.8008 968.846 40.9175C967.328 39.8008 959.937 39.8008 954.279 42.3322C948.615 44.8635 941.335 39.354 937.769 39.354C934.209 39.354 932.895 40.7314 932.895 42.3322C932.055 42.481 930.853 42.2577 930.957 41.8854C929.909 41.5876 927.915 41.6621 922.678 43.7839C912.3 48.0277 896.95 42.2204 895.006 41.9226C894.272 41.811 894.223 41.1409 892.964 40.7686C892.545 41.2526 891.132 41.2898 890.503 40.8431C889.559 41.4015 888.664 40.3591 888.559 39.9124C886.622 39.9124 887.775 41.2898 884.37 42.2577C880.964 43.2255 867.705 41.2526 864.824 41.2526C861.943 41.2526 860.474 41.9971 858.013 42.8533C855.649 42.1088 853.293 42.63 853.712 43.7839C851.195 44.9007 848.314 42.63 843.335 42.1832C843.076 41.5132 842.083 41.5876 841.768 42.1088C835.845 42.1088 836.628 38.4607 834.95 38.9446C833.279 39.4285 834.481 38.0884 831.964 39.8752C831.964 38.5351 825.257 36.4504 820.698 38.0139C816.138 39.5774 812.579 36.2271 809.957 34.9242C807.334 33.6212 806.915 35.4826 804.089 36.1154C801.257 36.7482 804.089 34.6263 799.264 34.6263C794.446 34.6263 796.383 35.1103 793.397 35.557C793.656 34.2541 792.817 35.222 792.082 33.6585C790.984 31.3877 788.782 33.6585 782.656 35.4081C777.782 33.9191 762.635 34.7381 757.082 38.684C756.138 39.354 754.096 38.4979 753.306 38.9446C750.005 40.8431 749.481 40.5453 749.222 41.9599C749.012 41.9599 747.383 41.2898 747.068 41.2526C747.068 41.6248 747.334 41.9971 747.439 42.3694C745.341 42.3694 742.194 40.6569 742.194 40.6569C736.383 42.1088 733.131 41.1781 729.725 40.9175C726.32 40.6569 726.998 37.4183 725.005 39.2424C724.383 39.7263 719.089 37.4183 715.578 39.9497C712.068 42.481 705.725 42.8533 705.725 42.8533C703.788 42.1832 690.841 44.7518 688.692 46.2781C686.594 47.7687 685.545 47.0224 684.228 46.0851L684.133 46.0175C683.085 46.762 674.333 44.3051 670.77 46.8365C669.722 46.0547 668.621 46.5014 669.355 47.6182C665.791 49.07 660.918 48.1394 654.786 48.5116C647.817 48.9584 651.904 51.9366 646.769 51.4897C645.825 51.4152 643.625 51.5641 644.148 52.4203C639.642 52.4203 634.559 53.7979 632.043 55.0262C628.951 56.5154 627.589 54.2072 620.671 54.8402C613.806 55.4355 611.082 58.8604 608.723 58.8604C606.365 58.8604 598.714 58.3018 597.823 57.6693C597.561 57.8926 596.408 58.1158 596.094 58.2646C592.426 60.1631 587.447 57.7065 584.46 58.3767C581.211 59.1209 575.552 55.4727 572.564 57.5949C569.577 59.7166 565.437 56.9247 562.188 56.2917C562.188 57.0363 558.992 55.808 555.219 56.5899C551.446 57.3712 542.118 52.7929 542.118 52.7929C538.449 52.0854 537.82 54.6914 535.829 55.1378C533.785 55.5848 528.545 52.6063 524.981 54.4676C521.418 56.3289 519.479 53.3509 516.964 52.8673C516.387 53.7979 512.614 51.9366 512.614 51.9366C509.05 53.0905 508.159 50.8194 505.644 49.8144C503.076 48.8094 494.535 48.1394 494.01 49.926C493.487 51.7501 488.98 48.8094 486.517 50.559C484.106 52.3087 477.084 50.559 469.328 51.1176C461.572 51.6757 466.341 51.4524 467.075 52.9789C466.393 53.4998 459.371 52.1599 455.336 52.1599C451.301 52.1599 453.502 50.8194 450.672 50.8194C447.842 50.8194 449.781 52.0482 448.209 51.7501C446.637 51.4524 438.776 50.8194 437.1 53.3137C435.423 55.808 434.113 53.9467 434.113 53.9467C434.113 56.3289 426.567 52.7179 424.575 52.3459C424.994 53.9467 411.369 56.7387 410.426 55.0634C409.483 53.3881 396.486 54.0584 395.333 53.2021C394.18 52.3459 390.984 50.8194 390.984 52.3831C390.984 53.9467 380.136 50.8567 377.621 52.6435C375.105 54.4676 372.8 52.6435 372.8 52.6435C371.909 53.5742 371.961 51.8245 370.965 52.5319C367.244 55.175 355.087 54.542 352.728 54.542C350.265 54.542 338.841 52.7552 335.959 54.0584C335.12 54.4304 335.855 52.9045 334.754 53.6858C333.968 54.2444 319.924 53.1649 318.299 53.2765C316.674 53.4254 315.312 53.3509 314.421 53.4998C313.53 53.6486 314.421 52.7551 314.893 51.7129C313.425 52.5319 314.159 51.7873 313.688 51.6757C310.857 50.9688 294.508 50.6334 293.302 49.7772C291.835 48.735 274.122 45.4963 272.393 46.7248C270.926 47.7671 262.907 43.7095 259.03 42.8905C257.825 42.63 257.563 44.2307 257.038 43.1511C256.409 41.9226 242.68 38.8701 237.335 38.8701C231.989 38.8701 229.055 36.8972 229.055 35.2965C229.055 33.6957 224.39 33.9563 224.39 35.2965C224.39 36.6738 222.504 35.2965 222.504 33.733C222.504 32.3556 220.094 32.6162 217.631 33.8074C216.844 34.1797 217.159 33.1746 216.268 33.6212C214.486 34.5147 209.455 31.6855 206.678 32.6162C205.997 32.8395 205.735 31.8717 205.211 32.0205C205.211 32.0205 202.381 29.9731 201.595 30.5315Z" fill="#FAE5E2"/>
</g>
</g>
<defs>
<filter id="filter0_d_1647_4" x="-39.8" y="0" width="1084.6" height="150.8" filterUnits="userSpaceOnUse" color-interpolation-filters="sRGB">
<feFlood flood-opacity="0" result="BackgroundImageFix"/>
<feColorMatrix in="SourceAlpha" type="matrix" values="0 0 0 0 0 0 0 0 0 0 0 0 0 0 0 0 0 0 127 0" result="hardAlpha"/>
<feOffset dy="53"/>
<feGaussianBlur stdDeviation="19.4"/>
<feComposite in2="hardAlpha" operator="out"/>
<feColorMatrix type="matrix" values="0 0 0 0 0 0 0 0 0 0 0 0 0 0 0 0 0 0 0.12 0"/>
<feBlend mode="normal" in2="BackgroundImageFix" result="effect1_dropShadow_1647_4"/>
<feBlend mode="normal" in="SourceGraphic" in2="effect1_dropShadow_1647_4" result="shape"/>
</filter>
<clipPath id="clip0_1647_4">
<rect width="1006" height="529" fill="white"/>
</clipPath>
</defs>
</svg>
