<svg width="1007" height="134" viewBox="0 0 1007 134" fill="none" xmlns="http://www.w3.org/2000/svg">
<path opacity="0.1" d="M0 119.653C26.0156 119.43 51.0958 116.001 76.4783 111.654C141.243 100.564 205.633 88.6021 270.78 78.769C316.055 71.9353 361.411 66.3259 407.626 66.3259C412.178 66.3259 440.129 63.5581 443.341 66.6222C449.039 72.0576 397.446 97.1554 393.456 99.063C374.982 107.895 354.708 114.077 335.806 122.32C334.579 122.855 314.329 131.697 321.636 132.689C330.424 133.881 341.917 131.401 350.17 129.43C372.95 123.99 395.438 117.069 417.913 110.913C477.584 94.5715 535.15 73.974 595.328 58.6231C640.182 47.181 686.578 35.7849 734.114 33.2926C734.447 33.2752 757.441 32.0711 756.049 34.3296C751.414 41.846 737.513 47.6236 729.844 53.2904C720.695 60.0504 708.46 66.935 702.281 75.6582C698.811 80.5564 698.787 84.6184 698.787 90.0269C698.787 100.282 720.025 93.9941 727.127 92.2489C783.489 78.3975 835.177 54.384 889.4 36.5515C928.415 23.7208 967.495 10.8354 1008 1" stroke="#0C2B56" stroke-linecap="round"/>
</svg>
