<svg width="14" height="15" viewBox="0 0 14 15" fill="none" xmlns="http://www.w3.org/2000/svg">
<path d="M6.99456 3.89366C5.009 3.89366 3.40049 5.50044 3.40049 7.48215C3.40049 9.46463 5.009 11.0714 6.99456 11.0714C8.97857 11.0714 10.5886 9.46463 10.5886 7.48215C10.5886 5.50044 8.97857 3.89366 6.99456 3.89366ZM6.99456 9.81393C5.7048 9.81393 4.65915 8.76991 4.65915 7.48292C4.65915 6.19517 5.7048 5.15192 6.99456 5.15192C8.28432 5.15192 9.32841 6.19517 9.32841 7.48292C9.32841 8.76991 8.28432 9.81393 6.99456 9.81393Z" fill="#0C2B56"/>
<path d="M10.7317 4.59847C11.1945 4.59847 11.5697 4.22383 11.5697 3.7617C11.5697 3.29956 11.1945 2.92493 10.7317 2.92493C10.2688 2.92493 9.8936 3.29956 9.8936 3.7617C9.8936 4.22383 10.2688 4.59847 10.7317 4.59847Z" fill="#0C2B56"/>
<path d="M13.6292 2.91096C13.2645 1.9725 12.5221 1.23043 11.5822 0.867931C11.0388 0.663784 10.4642 0.554336 9.88272 0.541916C9.13405 0.509315 8.89693 0.5 6.99845 0.5C5.09996 0.5 4.85662 0.5 4.11417 0.541916C3.53421 0.553559 2.95968 0.663007 2.41626 0.867931C1.47557 1.23043 0.733119 1.9725 0.36928 2.91096C0.164816 3.45431 0.0551977 4.02717 0.0435362 4.60778C0.0101066 5.35451 0 5.59126 0 7.48758C0 9.38312 -5.79232e-09 9.62453 0.0435362 10.3674C0.0551977 10.948 0.164816 11.5208 0.36928 12.065C0.733896 13.0027 1.47634 13.7447 2.41704 14.108C2.95813 14.3191 3.53265 14.4387 4.11573 14.4573C4.86439 14.4899 5.10151 14.5 7 14.5C8.89849 14.5 9.14183 14.5 9.88427 14.4573C10.465 14.4457 11.0395 14.3354 11.5837 14.1321C12.5237 13.768 13.2661 13.0267 13.6307 12.0883C13.8352 11.5449 13.9448 10.9721 13.9565 10.3914C13.9899 9.64471 14 9.40796 14 7.51164C14 5.61532 14 5.37469 13.9565 4.63185C13.9464 4.04347 13.8375 3.46052 13.6292 2.91096ZM12.6823 10.3099C12.6768 10.757 12.596 11.2003 12.4405 11.6202C12.2034 12.2311 11.7206 12.7139 11.1095 12.9483C10.6936 13.1028 10.2551 13.1835 9.8112 13.1897C9.07263 13.2239 8.86428 13.2324 6.97046 13.2324C5.07508 13.2324 4.8815 13.2324 4.12894 13.1897C3.68658 13.1843 3.24656 13.1028 2.83141 12.9483C2.21801 12.7147 1.73212 12.2319 1.495 11.6202C1.34263 11.2057 1.26022 10.7671 1.25322 10.3247C1.21979 9.58727 1.21202 9.37924 1.21202 7.48836C1.21202 5.5967 1.21202 5.40342 1.25322 4.65125C1.25866 4.20415 1.33952 3.7617 1.495 3.34176C1.73212 2.72932 2.21801 2.24728 2.83141 2.01286C3.24656 1.85917 3.68658 1.77767 4.12894 1.77146C4.86828 1.73808 5.07586 1.72876 6.97046 1.72876C8.86506 1.72876 9.05942 1.72876 9.8112 1.77146C10.2551 1.77689 10.6936 1.85839 11.1095 2.01286C11.7206 2.24806 12.2034 2.73087 12.4405 3.34176C12.5928 3.75627 12.6753 4.19483 12.6823 4.63728C12.7157 5.37547 12.7242 5.58272 12.7242 7.47438C12.7242 9.36527 12.7242 9.56864 12.6908 10.3107H12.6823V10.3099Z" fill="#0C2B56"/>
</svg>
