<svg width="161" height="40" viewBox="0 0 161 40" fill="none" xmlns="http://www.w3.org/2000/svg">
<path d="M40.9027 17.2631C36.9125 17.2631 35 15.0815 35 11.8565V10.3626H38.8013V11.7617C38.8013 13.2082 39.4861 13.801 40.643 13.801C41.8707 13.801 42.3902 13.0422 42.3902 11.8091V0H46.5693V11.904C46.5693 13.4216 46.1915 14.6547 45.3651 15.5795C44.4207 16.6229 42.886 17.2631 40.9027 17.2631Z" fill="#0C2B56"/>
<path d="M52.6354 17.3105C49.8494 17.3105 48.3855 15.4846 48.3855 12.7813V4.81375H52.2104V11.9751C52.2104 13.303 52.8007 14.0381 54.0285 14.0381C55.3507 14.0381 56.1534 13.0422 56.1534 11.5957V4.81375H60.002V16.9548H56.3187V15.4609H56.2479C55.3743 16.6466 54.3118 17.3105 52.6354 17.3105Z" fill="#0C2B56"/>
<path d="M61.8532 16.9548V4.81375H65.5601V6.47367H65.631C66.5282 5.16945 67.6851 4.45806 69.3615 4.45806C72.0059 4.45806 73.5642 6.3551 73.5642 9.05839V16.9548H69.7156V9.84093C69.7156 8.56042 69.0781 7.68303 67.8268 7.68303C66.5518 7.68303 65.7018 8.75012 65.7018 10.244V16.9548H61.8532Z" fill="#0C2B56"/>
<path d="M75.3188 16.9548V4.81375H79.1673V16.9548H75.3188ZM75.3188 3.13013V0H79.1673V3.13013H75.3188Z" fill="#0C2B56"/>
<path d="M86.9167 14.5835C88.593 14.5835 89.4902 13.1133 89.4902 10.908C89.4902 8.7027 88.593 7.20877 86.9167 7.20877C85.2403 7.20877 84.3667 8.7027 84.3667 10.908C84.3667 13.1133 85.2403 14.5835 86.9167 14.5835ZM86.9403 17.3343C83.0681 17.3343 80.4709 14.5598 80.4709 10.908C80.4709 7.2562 83.0681 4.48177 86.9403 4.48177C90.8361 4.48177 93.386 7.2562 93.386 10.908C93.386 14.5598 90.8361 17.3343 86.9403 17.3343Z" fill="#0C2B56"/>
<path d="M94.687 16.9548V4.81375H98.3703V6.7108H98.4411C99.2911 5.2643 100.283 4.62405 101.747 4.62405C102.101 4.62405 102.337 4.64776 102.502 4.7189V8.03873H102.408C100.047 7.70675 98.5356 8.86869 98.5356 11.5008V16.9548H94.687Z" fill="#0C2B56"/>
<path d="M43.4999 35.6131C38.5416 35.6131 35.1653 31.8901 35.1653 26.8155C35.1653 21.7646 38.4472 17.9468 43.4763 17.9468C45.436 17.9468 47.0887 18.516 48.2929 19.4408C49.7568 20.5553 50.6067 22.2152 50.8192 24.1122H46.6401C46.4276 22.5946 45.2471 21.4327 43.4527 21.4327C40.7138 21.4327 39.4152 23.7328 39.4152 26.8155C39.4152 29.9219 40.9735 32.1747 43.4763 32.1747C45.3415 32.1747 46.5693 30.989 46.7582 29.3528H50.9373C50.8192 31.0365 50.0637 32.5778 48.9068 33.6923C47.6082 34.9491 45.8846 35.6131 43.4999 35.6131Z" fill="#0C2B56"/>
<path d="M55.7574 35.5419C53.3491 35.5419 51.6255 34.2377 51.6255 31.8427C51.6255 29.1631 53.7505 28.3569 56.2532 28.0249C58.5199 27.7403 59.3226 27.5032 59.3226 26.6733C59.3226 25.8907 58.8268 25.369 57.6699 25.369C56.4421 25.369 55.8282 25.9144 55.7102 26.9341H52.1686C52.263 24.6814 53.9866 22.7606 57.6463 22.7606C59.4643 22.7606 60.6921 23.0926 61.5657 23.7565C62.6045 24.5154 63.1004 25.701 63.1004 27.2187V33.3366C63.1004 34.3089 63.1948 34.8543 63.5254 35.0677V35.2337H59.7949C59.606 34.9728 59.4879 34.4986 59.3935 33.882H59.3462C58.6379 34.9017 57.5754 35.5419 55.7574 35.5419ZM56.9852 33.0758C58.4254 33.0758 59.4171 32.1984 59.4171 30.8942V29.4477C58.9213 29.7085 58.2129 29.8982 57.4338 30.0879C55.9463 30.4199 55.3324 30.7993 55.3324 31.7241C55.3324 32.6964 56.0407 33.0758 56.9852 33.0758Z" fill="#0C2B56"/>
<path d="M69.1215 35.5894C66.3354 35.5894 64.8715 33.7635 64.8715 31.0602V23.0926H68.6965V30.2539C68.6965 31.5819 69.2868 32.317 70.5145 32.317C71.8367 32.317 72.6395 31.321 72.6395 29.8745V23.0926H76.4881V35.2337H72.8048V33.7397H72.7339C71.8603 34.9254 70.7979 35.5894 69.1215 35.5894Z" fill="#0C2B56"/>
<path d="M84.2184 35.6131C80.3226 35.6131 77.7962 32.8387 77.7962 29.1868C77.7962 25.535 80.299 22.7606 84.124 22.7606C87.4059 22.7606 89.5072 24.6814 89.8614 27.4084H86.1545C85.9184 26.3176 85.2573 25.6062 84.1712 25.6062C82.5184 25.6062 81.692 26.9815 81.692 29.1868C81.692 31.3447 82.5184 32.7201 84.1712 32.7201C85.3753 32.7201 86.1073 32.0087 86.2725 30.6333H89.9558C89.8614 33.4315 87.642 35.6131 84.2184 35.6131Z" fill="#0C2B56"/>
<path d="M95.3378 35.5894C92.5517 35.5894 91.0878 33.7635 91.0878 31.0602V23.0926H94.9128V30.2539C94.9128 31.5819 95.5031 32.317 96.7308 32.317C98.053 32.317 98.8558 31.321 98.8558 29.8745V23.0926H102.704V35.2337H99.0211V33.7397H98.9502C98.0766 34.9254 97.0142 35.5894 95.3378 35.5894Z" fill="#0C2B56"/>
<path d="M109.703 35.6131C106.161 35.6131 103.942 33.9769 103.824 31.2973H107.46C107.601 32.5067 108.404 33.0995 109.679 33.0995C110.836 33.0995 111.568 32.6727 111.568 31.8901C111.568 30.7993 110.104 30.6808 108.499 30.3962C106.397 30.0405 104.154 29.4714 104.154 26.6258C104.154 24.0648 106.515 22.7369 109.372 22.7369C112.796 22.7369 114.637 24.2308 114.826 26.6258H111.285C111.143 25.535 110.411 25.203 109.349 25.203C108.404 25.203 107.672 25.5587 107.672 26.3176C107.672 27.1712 109.042 27.2898 110.576 27.5744C112.701 27.93 115.204 28.4754 115.204 31.5819C115.204 34.2377 112.867 35.6131 109.703 35.6131Z" fill="#0C2B56"/>
<path d="M119.765 35.2337L119.694 34.7594C124.298 31.0365 125.833 29.5425 125.833 27.5744C125.833 26.1279 124.865 25.0608 123.401 25.0608C122.079 25.0608 121.111 25.7247 120.308 27.1001L120.049 26.9578C121.017 25.0371 122.433 23.7803 124.275 23.7803C126.046 23.7803 127.462 25.0608 127.462 26.7444C127.462 28.9971 125.337 30.6333 121.465 33.7635V33.8109H125.928C127.533 33.8109 128.053 33.1943 128.69 31.5107L128.879 30.989L129.21 31.0127L128.43 35.2337H119.765Z" fill="#0C2B56"/>
<path d="M135.857 35.5182C132.669 35.5182 130.284 33.0995 130.284 29.6848C130.284 26.2464 132.716 23.7565 135.904 23.7565C139.044 23.7565 141.429 26.2227 141.429 29.6374C141.429 33.0995 139.068 35.5182 135.857 35.5182ZM135.927 35.044C138.17 35.044 139.681 32.6964 139.681 29.7797C139.681 26.6495 138.194 24.3019 135.833 24.3019C133.59 24.3019 132.055 26.6258 132.055 29.424C132.055 32.7675 133.448 35.044 135.927 35.044Z" fill="#0C2B56"/>
<path d="M142.477 35.2337L142.406 34.7594C147.01 31.0365 148.545 29.5425 148.545 27.5744C148.545 26.1279 147.577 25.0608 146.113 25.0608C144.791 25.0608 143.823 25.7247 143.02 27.1001L142.76 26.9578C143.728 25.0371 145.145 23.7803 146.986 23.7803C148.757 23.7803 150.174 25.0608 150.174 26.7444C150.174 28.9971 148.049 30.6333 144.177 33.7635V33.8109H148.639C150.245 33.8109 150.764 33.1943 151.402 31.5107L151.591 30.989L151.921 31.0127L151.142 35.2337H142.477Z" fill="#0C2B56"/>
<path d="M155.026 40C153.256 40 152.382 39.17 152.382 38.3638C152.382 37.7473 152.854 37.2967 153.468 37.2967C154.365 37.2967 154.956 38.2215 154.838 39.2886C154.908 39.2886 155.451 39.4546 155.806 39.4546C157.6 39.4546 159.442 38.0555 159.442 35.6131C159.442 33.55 158.19 32.0798 156.018 32.0798C155.31 32.0798 154.601 32.2932 154.011 32.5304L153.87 32.2458C156.585 30.4673 158.356 29.5425 158.356 27.5506C158.356 26.1279 157.364 25.0371 155.853 25.0371C154.531 25.0371 153.539 25.7247 152.807 27.0764C152.783 27.0764 152.524 26.9104 152.547 26.9104C153.468 24.9659 154.932 23.7803 156.774 23.7803C158.615 23.7803 159.985 25.1082 159.985 26.7681C159.985 28.594 158.45 29.7085 156.679 30.823V30.8705C159.371 30.7993 161 32.4592 161 34.7357C161 37.439 158.379 40 155.026 40Z" fill="#0C2B56"/>
<path d="M13.8104 4.60335C14.845 4.46163 14.435 3.3472 15.4793 3.34766C16.5906 3.34814 16.2096 4.46559 17.312 4.60487C18.3481 4.73576 18.2405 3.5532 19.2491 3.82392C20.3224 4.11201 19.6651 5.09277 20.694 5.51265C21.6609 5.90723 21.8631 4.73712 22.7672 5.25966C23.7293 5.81571 22.8407 6.59294 23.7258 7.26481C24.5576 7.89619 25.0557 6.81828 25.7938 7.55703C26.5793 8.34314 25.5197 8.86389 26.2008 9.74195C26.8408 10.5671 27.601 9.65485 28.1227 10.5595C28.6779 11.5221 27.5197 11.7508 27.9503 12.7753C28.355 13.738 29.3253 13.0535 29.5952 14.0623C29.8823 15.1359 28.7043 15.0571 28.8551 16.158C28.9969 17.1926 30.1113 16.7827 30.1108 17.827C30.1104 18.9382 28.9929 18.5572 28.8536 19.6597C28.7227 20.6958 29.9053 20.5882 29.6346 21.5968C29.3465 22.67 28.3657 22.0128 27.9458 23.0417C27.5513 24.0085 28.7214 24.2107 28.1988 25.1149C27.6428 26.077 26.8656 25.1883 26.1937 26.0735C25.5623 26.9053 26.6402 27.4034 25.9015 28.1415C25.1154 28.9269 24.5946 27.8674 23.7165 28.5484C22.8914 29.1885 23.8036 29.9486 22.899 30.4704C21.9364 31.0256 21.7077 29.8673 20.6832 30.298C19.7205 30.7026 20.405 31.673 19.3961 31.9428C18.3226 32.23 18.4014 31.052 17.3005 31.2028C16.2658 31.3445 16.6758 32.459 15.6315 32.4585C14.5203 32.458 14.9013 31.3406 13.7988 31.2013C12.7627 31.0704 12.8703 32.2529 11.8617 31.9822C10.7885 31.6941 11.4457 30.7134 10.4168 30.2935C9.44994 29.8989 9.24777 31.069 8.34362 30.5465C7.38149 29.9904 8.27017 29.2132 7.38503 28.5413C6.55323 27.91 6.0551 28.9879 5.317 28.2491C4.53157 27.463 5.59114 26.9423 4.91005 26.0642C4.27 25.239 3.50986 26.1513 2.98811 25.2467C2.43291 24.2841 3.59115 24.0553 3.16052 23.0309C2.75585 22.0682 1.7855 22.7526 1.51566 21.7438C1.22852 20.6703 2.4065 20.7491 2.25569 19.6481C2.11397 18.6135 0.999542 19.0235 1 17.9792C1.00049 16.8679 2.11794 17.2489 2.25722 16.1464C2.38811 15.1104 1.20554 15.218 1.47627 14.2094C1.76435 13.1361 2.74511 13.7933 3.16499 12.7645C3.55957 11.7976 2.38946 11.5954 2.912 10.6913C3.46805 9.72915 4.24529 10.6178 4.91715 9.73269C5.54853 8.90088 4.47062 8.40275 5.20937 7.66465C5.99549 6.87923 6.51623 7.93879 7.39429 7.2577C8.21945 6.61765 7.30719 5.85751 8.2118 5.33576C9.17441 4.78056 9.40318 5.9388 10.4276 5.50818C11.3903 5.10351 10.7059 4.13316 11.7147 3.86332C12.7882 3.57618 12.7094 4.75416 13.8104 4.60335Z" stroke="#0C2B56" stroke-width="0.1"/>
<path d="M28.246 17.9831C28.246 21.3634 26.9032 24.6052 24.513 26.9954C22.1228 29.3856 18.8809 30.7284 15.5007 30.7284C12.1204 30.7284 8.87859 29.3856 6.48839 26.9954C4.09818 24.6052 2.75537 21.3634 2.75537 17.9831C2.75537 14.6028 4.09818 11.361 6.48839 8.97081C8.87859 6.5806 12.1204 5.23779 15.5007 5.23779C18.8809 5.23779 22.1228 6.5806 24.513 8.97081C26.9032 11.361 28.246 14.6028 28.246 17.9831Z" stroke="#0C2B56" stroke-width="0.1"/>
<path d="M15.444 8.42725C10.1769 8.42725 5.89746 12.7067 5.89746 17.9738C5.89746 23.2409 10.1769 27.5126 15.444 27.5126C20.7111 27.5126 24.9828 23.2409 24.9828 17.9738C24.9828 12.7067 20.7111 8.42725 15.444 8.42725ZM15.4672 12.4456C16.1685 12.4341 16.863 12.4803 17.5577 12.6314L17.8055 12.8792L18.0533 12.6314H19.052C19.2125 13.3495 19.1799 14.0944 19.052 14.8536H18.061L17.8132 14.6135L17.5577 14.8536C16.1772 15.0215 14.7754 15.0159 13.3535 14.8536L13.1058 14.6135L12.858 14.8536H11.867C11.6901 14.1182 11.7138 13.3772 11.867 12.6314H12.8503L13.1058 12.8792L13.3535 12.6314C14.0585 12.5262 14.766 12.4571 15.4672 12.4456ZM15.1266 15.2871H15.9628C16.1731 15.2871 16.3594 15.8155 16.4815 16.6266L23.3492 16.6034C21.917 21.4747 19.1266 24.8304 15.6144 27.4429C11.5242 24.7645 9.12174 21.0456 7.81761 16.6576L14.6078 16.6343C14.7299 15.8186 14.9156 15.2871 15.1266 15.2871Z" stroke="#0C2B56" stroke-width="0.1"/>
<path fill-rule="evenodd" clip-rule="evenodd" d="M15.5059 8.68262C13.1302 10.8698 10.6905 12.9308 7.13623 13.8082C7.31901 14.7847 7.54391 15.7366 7.81757 16.6574L14.6078 16.6342C14.612 16.6058 14.6189 16.5845 14.6233 16.5568C14.6448 16.421 14.6679 16.2945 14.693 16.1774C14.709 16.102 14.7221 16.0276 14.7394 15.9606C14.749 15.9239 14.7604 15.8862 14.7704 15.8522C14.7838 15.806 14.7951 15.7617 14.8091 15.7206C14.811 15.7149 14.8149 15.7107 14.8168 15.7051C14.8345 15.6543 14.8524 15.6079 14.871 15.5657C14.8906 15.5214 14.9125 15.4838 14.933 15.4496C14.9533 15.4157 14.9738 15.3878 14.9949 15.3644C15.0177 15.3393 15.041 15.3224 15.0646 15.3102C15.0856 15.2994 15.105 15.287 15.1265 15.287H15.9627C15.9858 15.287 16.0099 15.298 16.0324 15.3102C16.0348 15.3116 16.0378 15.3088 16.0402 15.3102C16.0567 15.3198 16.0704 15.3407 16.0866 15.3567C16.0958 15.3662 16.1085 15.3684 16.1176 15.3799C16.1255 15.3895 16.133 15.3998 16.1408 15.4109C16.1581 15.4361 16.1706 15.4637 16.1873 15.4961C16.2098 15.5388 16.2278 15.5882 16.2492 15.6432C16.2553 15.6589 16.2664 15.6729 16.2724 15.6896C16.2897 15.7381 16.3025 15.7883 16.3189 15.8445C16.3213 15.8526 16.3243 15.8595 16.3266 15.8677C16.3321 15.8868 16.3368 15.9098 16.3421 15.9296C16.3621 16.0042 16.378 16.092 16.3963 16.1774C16.4256 16.3142 16.4571 16.4644 16.4815 16.6265L23.3491 16.6032C23.5918 15.7777 23.7993 14.9105 23.9608 13.994C21.1338 12.9449 17.8649 11.1111 15.5059 8.68262ZM15.4672 12.4455C16.1684 12.434 16.863 12.4802 17.5577 12.6313L17.8055 12.8791L18.0532 12.6313H19.052C19.2124 13.3493 19.1798 14.0942 19.052 14.8534H18.061L17.8132 14.6134L17.5577 14.8534C16.1771 15.0214 14.7753 15.0158 13.3535 14.8534L13.1057 14.6134L12.858 14.8534H11.8669C11.6901 14.118 11.7138 13.377 11.8669 12.6313H12.8502L13.1057 12.8791L13.3535 12.6313C14.0585 12.5261 14.766 12.457 15.4672 12.4455Z" fill="#0C2B56" stroke="#0C2B56" stroke-width="0.1"/>
<path d="M15.9642 15.2886H15.1292C14.7607 15.2886 14.4619 16.8924 14.4619 18.8709V22.6826C14.4619 24.6611 14.7607 26.265 15.1292 26.265H15.9642C16.3328 26.265 16.6315 24.6611 16.6315 22.6826V18.8709C16.6315 16.8924 16.3328 15.2886 15.9642 15.2886Z" stroke="#0C2B56" stroke-width="0.1"/>
<path d="M13.1056 13.2847H13.0837C13.0318 13.2847 12.9897 13.4949 12.9897 13.7542V13.7542C12.9897 14.0136 13.0318 14.2238 13.0837 14.2238H13.1056C13.1574 14.2238 13.1995 14.0136 13.1995 13.7542V13.7542C13.1995 13.4949 13.1574 13.2847 13.1056 13.2847Z" stroke="#0C2B56" stroke-width="0.4"/>
<path d="M17.8097 13.2847H17.7878C17.7359 13.2847 17.6938 13.4949 17.6938 13.7542V13.7542C17.6938 14.0136 17.7359 14.2238 17.7878 14.2238H17.8097C17.8615 14.2238 17.9036 14.0136 17.9036 13.7542V13.7542C17.9036 13.4949 17.8615 13.2847 17.8097 13.2847Z" stroke="#0C2B56" stroke-width="0.4"/>
<path d="M11.7443 18.1921V20.2233M11.7435 20.2224C11.0966 19.854 10.438 19.8386 9.75977 20.2224V18.1652C10.438 17.6613 11.0996 17.6897 11.7464 18.1902C12.4246 17.6877 13.0804 17.6897 13.7272 18.1888V20.2224C13.0804 19.854 12.4217 19.8386 11.7435 20.2224Z" stroke="#0C2B56" stroke-width="0.1"/>
<path d="M19.4416 18.2029V20.234M19.4408 20.2332C18.7939 19.8648 18.1352 19.8493 17.457 20.2332V18.176C18.1352 17.672 18.7968 17.7004 19.4437 18.201C20.1219 17.6985 20.7776 17.7004 21.4245 18.1995V20.2332C20.7776 19.8648 20.119 19.8493 19.4408 20.2332Z" stroke="#0C2B56" stroke-width="0.1"/>
<path d="M3.54927 19.7833L3.45829 18.7289C3.43774 18.4907 3.47606 18.3043 3.57324 18.1696C3.67042 18.0349 3.80627 17.9601 3.98079 17.945C4.15532 17.93 4.29338 17.9763 4.39496 18.0841C4.53501 18.2323 4.61509 18.4231 4.63523 18.6565L4.66817 19.0383L5.39858 18.9753C5.44101 18.9716 5.47051 18.9589 5.48708 18.937C5.50789 18.908 5.51634 18.8709 5.51243 18.8256L5.49147 18.5826L5.59994 18.5732L5.68842 19.5987L5.57995 19.608L5.56148 19.394C5.55782 19.3516 5.5467 19.3212 5.52812 19.3029C5.50954 19.2846 5.48578 19.2767 5.45686 19.2792L3.7516 19.4263C3.70822 19.43 3.67796 19.4453 3.66084 19.472C3.64372 19.4987 3.63815 19.5468 3.64414 19.6162L3.65774 19.7739L3.54927 19.7833ZM4.56259 19.0474L4.5375 18.7567C4.52162 18.5725 4.47183 18.443 4.38814 18.3681C4.30445 18.2933 4.17438 18.2635 3.99793 18.2787C3.87451 18.2893 3.78135 18.3158 3.71846 18.3582C3.65557 18.4005 3.61128 18.4585 3.58557 18.5321C3.55987 18.6057 3.554 18.7235 3.56798 18.8855C3.57721 18.9925 3.59318 19.0594 3.61588 19.0861C3.63859 19.1128 3.67501 19.124 3.72515 19.1197L4.56259 19.0474ZM3.396 17.3584L3.51967 16.2562C3.54363 16.0427 3.61078 15.8825 3.72114 15.7756C3.8315 15.6687 3.96555 15.6241 4.12328 15.6417C4.21754 15.6523 4.29883 15.6851 4.36718 15.74C4.43552 15.7949 4.48663 15.8688 4.52052 15.9617C4.55441 16.0546 4.57039 16.1964 4.56848 16.3871C4.62142 16.2537 4.66884 16.1631 4.71073 16.1152C4.75263 16.0673 4.80394 16.031 4.86467 16.0061C4.9254 15.9813 5.04604 15.9586 5.22658 15.9379C5.35581 15.9232 5.44534 15.9021 5.49518 15.8746C5.53357 15.8536 5.55438 15.8286 5.55762 15.7998C5.56097 15.77 5.54219 15.7398 5.50129 15.7094C5.46039 15.679 5.38496 15.6548 5.275 15.6366L5.28601 15.5385C5.61096 15.5934 5.76092 15.7325 5.73589 15.9556C5.72801 16.0258 5.70339 16.0847 5.66203 16.1321C5.62067 16.1796 5.56391 16.2124 5.49175 16.2306C5.43755 16.245 5.29892 16.2523 5.07586 16.2526C4.94633 16.2527 4.85288 16.2653 4.79551 16.2906C4.73814 16.3158 4.68939 16.3597 4.64924 16.4224C4.60909 16.4851 4.58384 16.5626 4.57348 16.655L4.55389 16.8295L5.39209 16.9236C5.42767 16.9276 5.4537 16.9212 5.47018 16.9046C5.49104 16.8835 5.50423 16.8485 5.50973 16.7994L5.53272 16.5946L5.64092 16.6067L5.52971 17.5978L5.42151 17.5857L5.44498 17.3765C5.45016 17.3304 5.44483 17.2954 5.42898 17.2717C5.41314 17.248 5.38935 17.2344 5.35761 17.2309L3.65237 17.0395C3.61582 17.0354 3.58717 17.0434 3.56641 17.0635C3.54566 17.0835 3.53274 17.1162 3.52767 17.1614L3.5042 17.3706L3.396 17.3584ZM4.45002 16.8179L4.47835 16.5654C4.49734 16.3961 4.48023 16.26 4.427 16.1572C4.37378 16.0543 4.26542 15.9937 4.10192 15.9753C3.98939 15.9627 3.8984 15.9708 3.82895 15.9995C3.75951 16.0282 3.70947 16.0706 3.67884 16.1265C3.64821 16.1825 3.62324 16.2966 3.60392 16.4687C3.59119 16.5822 3.59125 16.6533 3.60409 16.682C3.61694 16.7108 3.6426 16.7273 3.68107 16.7316L4.45002 16.8179ZM4.06915 13.6725C4.12895 13.5017 4.22998 13.3573 4.37225 13.2395C4.51451 13.1216 4.68105 13.0487 4.87185 13.0206C5.06266 12.9926 5.259 13.0139 5.46087 13.0846C5.66274 13.1553 5.83011 13.2615 5.96296 13.4034C6.09581 13.5453 6.1817 13.7064 6.22062 13.8866C6.25954 14.0669 6.2499 14.2401 6.19169 14.4064C6.13476 14.569 6.03683 14.7059 5.89788 14.8172C5.75892 14.9286 5.59144 14.9984 5.39543 15.0266C5.19942 15.0549 5.00047 15.0337 4.7986 14.963C4.59947 14.8933 4.43438 14.7886 4.30333 14.6489C4.17228 14.5092 4.08674 14.3508 4.04669 14.1737C4.00666 13.9967 4.01414 13.8296 4.06915 13.6725ZM4.18232 13.6875C4.11996 13.8656 4.14342 14.0358 4.25271 14.1982C4.36199 14.3605 4.58379 14.5002 4.91812 14.6173C5.28076 14.7442 5.55133 14.7754 5.72983 14.7107C5.90833 14.6461 6.02684 14.5302 6.08537 14.363C6.1263 14.2461 6.13076 14.1323 6.09876 14.0216C6.06675 13.9109 5.99143 13.8053 5.8728 13.7049C5.75417 13.6044 5.58342 13.5151 5.36054 13.4371C5.11756 13.352 4.91915 13.3102 4.76532 13.3117C4.61149 13.3132 4.4857 13.3482 4.38795 13.4165C4.29021 13.4848 4.22166 13.5751 4.18232 13.6875ZM6.2618 10.1705L6.19239 9.95297L6.25676 9.86878L6.88366 10.3371L6.82546 10.4132C6.59834 10.3151 6.40525 10.2793 6.24618 10.3057C6.08711 10.3321 5.96113 10.406 5.86825 10.5275C5.79066 10.629 5.75754 10.7352 5.7689 10.8462C5.78026 10.9573 5.82977 11.0463 5.91741 11.1133C5.972 11.155 6.02927 11.1793 6.08921 11.1862C6.14915 11.193 6.21067 11.1819 6.27375 11.1528C6.33684 11.1236 6.43472 11.0526 6.56739 10.9396C6.75411 10.7814 6.89785 10.6803 6.99863 10.6361C7.0994 10.5919 7.19629 10.5756 7.2893 10.587C7.3823 10.5984 7.47185 10.637 7.55796 10.7028C7.71173 10.8204 7.79963 10.9696 7.82167 11.1503C7.84371 11.331 7.79212 11.5032 7.66691 11.667C7.5323 11.843 7.35842 11.9525 7.14529 11.9955L7.2048 12.2475L7.14131 12.3305L6.4805 11.8253L6.54398 11.7422C6.75089 11.8492 6.94992 11.8869 7.14107 11.8552C7.33223 11.8235 7.48159 11.7373 7.58917 11.5966C7.67617 11.4828 7.71352 11.3642 7.70121 11.2409C7.68889 11.1176 7.63469 11.0192 7.53858 10.9457C7.48399 10.904 7.42585 10.8808 7.36414 10.8763C7.30243 10.8717 7.23521 10.888 7.16247 10.9249C7.08973 10.9619 6.96783 11.0508 6.79676 11.1917C6.60815 11.346 6.46 11.4362 6.35233 11.4623C6.20043 11.4984 6.05259 11.4615 5.90882 11.3516C5.75889 11.237 5.67266 11.0952 5.65013 10.9263C5.6276 10.7574 5.67335 10.5984 5.78739 10.4492C5.84206 10.3777 5.90677 10.3194 5.98152 10.2742C6.05627 10.229 6.1497 10.1944 6.2618 10.1705ZM8.22044 8.29872L8.1637 8.07532L8.23376 8.01652L8.81799 8.65386L8.74349 8.71639C8.53839 8.57139 8.36175 8.4859 8.21358 8.4599C8.02895 8.42661 7.87288 8.46347 7.74538 8.57048C7.6075 8.68622 7.54683 8.84201 7.56339 9.03786C7.57995 9.23372 7.71142 9.47842 7.95782 9.77198C8.16501 10.0188 8.37272 10.1654 8.58094 10.2118C8.75754 10.2506 8.92219 10.2059 9.0749 10.0777C9.20833 9.96569 9.28433 9.82893 9.30291 9.6674C9.32148 9.50587 9.27199 9.32723 9.15445 9.13149L9.23339 9.06522C9.37468 9.28021 9.4339 9.48701 9.41106 9.6856C9.38822 9.8842 9.29229 10.0544 9.12327 10.1963C8.98613 10.3114 8.83136 10.3826 8.65897 10.4097C8.48657 10.4369 8.3118 10.4146 8.13465 10.3428C7.95751 10.271 7.80422 10.158 7.6748 10.0038C7.5373 9.84001 7.44359 9.65648 7.39367 9.45325C7.34376 9.25001 7.34369 9.0659 7.39348 8.90092C7.44327 8.73593 7.53191 8.59993 7.65942 8.49291C7.73058 8.43318 7.80979 8.38754 7.89704 8.356C7.98429 8.32447 8.09209 8.30538 8.22044 8.29872ZM8.93517 7.61783L9.79701 7.13049L9.8506 7.22526L9.70275 7.30887C9.63704 7.34603 9.60019 7.37771 9.59221 7.4039C9.58423 7.43009 9.59524 7.46973 9.62526 7.5228L10.4256 8.93812C10.4575 8.99457 10.4851 9.02566 10.5084 9.03141C10.5395 9.03935 10.5817 9.02832 10.6347 8.99831L10.8003 8.9047L10.8539 8.99947L9.99203 9.48682L9.93844 9.39204L10.1015 9.29986C10.1587 9.26747 10.191 9.23808 10.1984 9.2117C10.2057 9.18533 10.1934 9.14392 10.1615 9.08747L9.36115 7.67215C9.33066 7.61823 9.30426 7.58924 9.28195 7.58518C9.2474 7.57914 9.19854 7.59399 9.13535 7.62971L8.98877 7.71261L8.93517 7.61783ZM10.4693 6.78954L12.0764 6.23085L12.3526 6.90175L12.2608 6.93368C12.1492 6.73066 12.0389 6.59992 11.93 6.54148C11.821 6.48304 11.703 6.47591 11.576 6.52008L11.1783 6.65832C11.1463 6.66945 11.1251 6.68655 11.1147 6.70964C11.1043 6.73273 11.1053 6.7621 11.1177 6.79775L11.3689 7.52039L11.543 7.45985C11.6363 7.42744 11.7003 7.36777 11.7352 7.28086C11.77 7.19394 11.7657 7.08067 11.7223 6.94105L11.8169 6.90815L12.1435 7.84745L12.0489 7.88034C11.9903 7.72652 11.9198 7.62627 11.8375 7.57958C11.7552 7.53288 11.6633 7.52718 11.5618 7.56245L11.4027 7.61775L11.683 8.42403C11.6932 8.45328 11.7108 8.47226 11.7359 8.48097C11.7609 8.48968 11.7963 8.48609 11.842 8.4702L12.156 8.36104C12.497 8.2425 12.6179 7.9566 12.5187 7.50335L12.6175 7.46903L12.8459 8.23649L11.1743 8.81759L11.1386 8.71474L11.2771 8.6666C11.331 8.64785 11.3657 8.62529 11.3811 8.59892C11.3965 8.57255 11.398 8.54155 11.3857 8.50589L10.827 6.89881C10.8146 6.86316 10.7958 6.83999 10.7705 6.82929C10.7453 6.8186 10.7121 6.8204 10.671 6.8347L10.505 6.89238L10.4693 6.78954ZM12.9859 6.00171L13.4957 5.94981L14.9548 7.4969L14.8312 6.28228C14.8187 6.16 14.7816 6.07233 14.7198 6.01928C14.6633 5.97056 14.5844 5.95038 14.4831 5.95874L14.472 5.85042L15.2187 5.77441L15.2297 5.88273C15.1537 5.89048 15.0979 5.90685 15.0626 5.93186C15.0272 5.95686 14.9983 5.99871 14.9761 6.05739C14.9539 6.11608 14.9461 6.17865 14.9529 6.24508L15.1256 7.94209L14.9899 7.95591L13.4791 6.3455L13.6102 7.63378C13.6221 7.75028 13.6603 7.83419 13.7249 7.8855C13.7894 7.93681 13.8834 7.95716 14.0069 7.94654L14.0179 8.05486L13.2033 8.13778L13.1923 8.02946C13.294 8.01522 13.3714 7.97352 13.4247 7.90438C13.478 7.83524 13.5 7.75493 13.4907 7.66346L13.3432 6.21487L13.316 6.19137C13.2626 6.14428 13.2253 6.11695 13.2041 6.10937C13.1748 6.09874 13.138 6.09567 13.0937 6.10018L12.9969 6.11003L12.9859 6.00171ZM15.9158 5.81075L17.6477 5.99805L17.6023 6.80939L17.5028 6.79862C17.4886 6.31718 17.343 6.06147 17.0659 6.0315C17.0101 6.02547 16.9708 6.03095 16.948 6.04796C16.9253 6.06497 16.9115 6.0956 16.9067 6.13986L16.7222 7.84585C16.7185 7.88049 16.7258 7.90709 16.7442 7.92563C16.7627 7.94417 16.795 7.95594 16.8412 7.96093L17.0562 7.98419L17.0445 8.09244L16.053 7.98521L16.0647 7.87696L16.31 7.9035C16.3427 7.90703 16.3687 7.90156 16.3877 7.88708C16.4068 7.87259 16.4178 7.85188 16.4207 7.82494L16.6079 6.09441C16.6118 6.05784 16.6038 6.02898 16.5837 6.00782C16.5636 5.98667 16.529 5.97344 16.4799 5.96813C16.3404 5.95304 16.2168 6.00636 16.1092 6.12809C16.0205 6.2285 15.9467 6.39379 15.8877 6.62396L15.7823 6.61257L15.9158 5.81075ZM18.2422 6.13779L19.1989 6.39296L19.1708 6.49816L19.0067 6.45438C18.9337 6.43493 18.8852 6.43176 18.8612 6.44488C18.8372 6.45801 18.8173 6.49402 18.8016 6.55294L18.3826 8.12394C18.3658 8.1866 18.3638 8.22812 18.3764 8.2485C18.3931 8.276 18.4309 8.2976 18.4898 8.31332L18.6736 8.36233L18.6455 8.46753L17.6889 8.21236L17.7169 8.10716L17.8979 8.15543C17.9615 8.17239 18.0051 8.17401 18.0288 8.1603C18.0525 8.14658 18.0727 8.1084 18.0894 8.04575L18.5084 6.47474C18.5244 6.41489 18.5258 6.37571 18.5127 6.35719C18.4923 6.3287 18.447 6.3051 18.3769 6.28639L18.2142 6.24299L18.2422 6.13779ZM20.6743 6.91123L20.7629 6.95136L20.6547 9.05862C20.6502 9.14369 20.6915 9.20599 20.7788 9.24552L20.8396 9.27307L20.7947 9.37225L20.0145 9.01887L20.0594 8.91969L20.1216 8.94784C20.2027 8.98457 20.264 9.00171 20.3055 8.99925C20.334 8.99729 20.354 8.98353 20.3656 8.95796C20.3724 8.94298 20.3765 8.92571 20.3779 8.90616L20.4033 8.41726L19.631 8.06746L19.432 8.26417C19.3794 8.31686 19.3448 8.36172 19.328 8.39875C19.3084 8.44195 19.3117 8.48806 19.3379 8.53708C19.364 8.58611 19.4154 8.62799 19.4921 8.66273L19.5582 8.69268L19.5133 8.79186L18.8045 8.47081L18.8494 8.37163C18.9252 8.40597 18.9927 8.4166 19.0517 8.4035C19.1108 8.39041 19.1798 8.34596 19.2587 8.27017L20.6743 6.91123ZM20.4652 7.27074L19.7201 7.98348L20.4117 8.29674L20.4652 7.27074ZM23.813 8.93348L23.8856 8.99818L23.1547 10.9776C23.1251 11.0575 23.146 11.1292 23.2176 11.193L23.2674 11.2374L23.195 11.3187L22.5554 10.749L22.6279 10.6677L22.6788 10.7131C22.7453 10.7723 22.7987 10.8069 22.839 10.8169C22.8668 10.8235 22.8901 10.8164 22.9087 10.7954C22.9197 10.7831 22.9287 10.7679 22.9359 10.7496L23.1058 10.2905L22.4727 9.72656L22.2241 9.85505C22.1583 9.8897 22.1118 9.9222 22.0848 9.95256C22.0532 9.98797 22.0426 10.033 22.053 10.0875C22.0633 10.1421 22.0999 10.1974 22.1628 10.2534L22.217 10.3017L22.1446 10.383L21.5636 9.86544L21.636 9.78414C21.6981 9.83951 21.7593 9.86973 21.8196 9.87482C21.8799 9.8799 21.959 9.85803 22.0569 9.80918L23.813 8.93348ZM23.5063 9.21442L22.5827 9.6729L23.1497 10.1779L23.5063 9.21442ZM25.0377 10.2081L26.0592 11.6192L25.4265 12.1292L25.3677 12.048C25.7156 11.715 25.8079 11.4355 25.6445 11.2097C25.6115 11.1643 25.5811 11.1388 25.5533 11.1333C25.5254 11.1278 25.4934 11.1381 25.4573 11.1642L24.0673 12.1703C24.0391 12.1907 24.0243 12.214 24.0229 12.2401C24.0215 12.2662 24.0344 12.2981 24.0616 12.3357L24.1885 12.511L24.1003 12.5748L23.5155 11.7669L23.6037 11.7031L23.7484 11.903C23.7677 11.9296 23.7891 11.9452 23.8126 11.9497C23.8362 11.9541 23.8589 11.9484 23.8809 11.9325L25.2909 10.9119C25.3207 10.8903 25.3367 10.865 25.3389 10.8359C25.3411 10.8068 25.3278 10.7723 25.2989 10.7323C25.2166 10.6186 25.0942 10.5626 24.9317 10.5643C24.7978 10.5657 24.6256 10.6217 24.4152 10.7321L24.3531 10.6463L25.0377 10.2081ZM25.221 14.5486C25.1903 14.5783 25.1469 14.6148 25.0906 14.6583C24.985 14.7393 24.9203 14.8015 24.8965 14.845C24.8728 14.8885 24.8685 14.9286 24.8839 14.9652C24.8981 14.9991 24.9293 15.0204 24.9775 15.0291C25.0257 15.0377 25.0944 15.0245 25.1835 14.9893L25.2172 15.0696C25.0561 15.136 24.9247 15.1543 24.823 15.1244C24.7214 15.0946 24.6498 15.0301 24.6083 14.931C24.5698 14.8391 24.5753 14.7489 24.6249 14.6605C24.6744 14.5721 24.7997 14.4748 25.0008 14.3686C24.9674 14.3238 24.9378 14.2795 24.9121 14.2357C24.8864 14.1919 24.8648 14.149 24.8472 14.1071C24.7777 13.941 24.7566 13.7696 24.7839 13.593C24.8112 13.4163 24.8881 13.2529 25.0147 13.1029C25.1412 12.9529 25.3058 12.8354 25.5085 12.7506C25.796 12.6302 26.0805 12.6207 26.3622 12.7221C26.618 12.8144 26.7986 12.9864 26.904 13.2381C26.9746 13.4069 26.9965 13.5787 26.9695 13.7537C26.9426 13.9286 26.867 14.0914 26.7428 14.242C26.6185 14.3927 26.4578 14.5093 26.2605 14.5919C26.0801 14.6674 25.9057 14.7019 25.7372 14.6953C25.5687 14.6887 25.3966 14.6398 25.221 14.5486ZM25.3777 14.4043C25.489 14.4144 25.6024 14.4084 25.718 14.3862C25.8335 14.3641 25.9712 14.3195 26.131 14.2526C26.356 14.1584 26.5236 14.0594 26.6338 13.9556C26.7441 13.8517 26.8117 13.7421 26.8369 13.6266C26.862 13.5112 26.851 13.3972 26.8039 13.2848C26.7575 13.1741 26.6847 13.0878 26.5854 13.026C26.4861 12.9643 26.3598 12.9364 26.2065 12.9423C26.0532 12.9483 25.8627 12.9989 25.635 13.0942C25.4743 13.1615 25.3426 13.234 25.2398 13.3116C25.1369 13.3893 25.0468 13.4811 24.9694 13.5869C25.0097 13.5679 25.0424 13.5532 25.0674 13.5427C25.1781 13.4964 25.284 13.4938 25.3851 13.5348C25.4863 13.5759 25.5609 13.654 25.6092 13.7692C25.6577 13.8852 25.6596 13.9988 25.6149 14.1099C25.5806 14.1935 25.5016 14.2916 25.3777 14.4043ZM25.1387 14.3108C25.2987 14.2418 25.4064 14.172 25.4619 14.1016C25.5334 14.0118 25.5471 13.9142 25.503 13.8089C25.4679 13.725 25.4123 13.6675 25.3363 13.6363C25.2604 13.6052 25.18 13.6074 25.0951 13.6429C25.0112 13.678 24.9456 13.7443 24.8983 13.8418C24.8971 13.9167 24.9111 13.989 24.9403 14.0587C24.9627 14.1122 24.9905 14.1599 25.0237 14.2016C25.0569 14.2433 25.0953 14.2797 25.1387 14.3108ZM27.4854 14.9781L27.6301 15.959L27.5224 15.9749L27.4933 15.7782C27.4856 15.7255 27.4715 15.6899 27.4512 15.6714C27.4308 15.6529 27.403 15.6462 27.3675 15.6514L26.1683 15.8282C26.0429 15.8467 25.9497 15.8717 25.8888 15.9032C25.7988 15.9497 25.732 16.0205 25.6883 16.1155C25.6445 16.2104 25.633 16.3278 25.6536 16.4676C25.6821 16.661 25.7539 16.8011 25.8689 16.8878C25.9839 16.9746 26.1252 17.0056 26.2928 16.9809L27.2679 16.8371C27.3541 16.8244 27.4186 16.8088 27.4613 16.7903C27.5041 16.7717 27.5363 16.7494 27.5578 16.7232C27.5794 16.697 27.5936 16.6658 27.6005 16.6296C27.6074 16.5934 27.6049 16.535 27.5931 16.4546L27.7008 16.4387L27.8192 17.2416L27.7114 17.2574L27.703 17.2C27.6897 17.11 27.6556 17.0465 27.6008 17.0096C27.546 16.9727 27.4726 16.961 27.3807 16.9746L26.3365 17.1285C26.1087 17.1621 25.9243 17.1228 25.7835 17.0105C25.625 16.8842 25.5278 16.6994 25.492 16.4562C25.4609 16.2456 25.4664 16.0755 25.5085 15.9461C25.5505 15.8166 25.6235 15.7163 25.7275 15.6452C25.8067 15.5915 25.9109 15.5551 26.0401 15.536L27.3226 15.3469C27.3552 15.3421 27.3792 15.3271 27.3945 15.3019C27.4099 15.2766 27.4142 15.2415 27.4076 15.1965L27.3777 14.994L27.4854 14.9781ZM27.8103 18.0555L27.6633 19.7505L26.9381 19.7284L26.9465 19.6315C27.1774 19.6127 27.3418 19.5655 27.4397 19.49C27.5375 19.4144 27.5923 19.3096 27.6039 19.1756L27.6403 18.7562C27.6432 18.7224 27.6363 18.6961 27.6194 18.6772C27.6026 18.6582 27.5754 18.6471 27.5378 18.6438L26.7756 18.5777L26.7597 18.7614C26.7512 18.8598 26.7794 18.9426 26.8445 19.0099C26.9096 19.0773 27.0147 19.1197 27.1599 19.1371L27.1512 19.2369L26.1605 19.151L26.1692 19.0512C26.3335 19.0606 26.4538 19.0373 26.5301 18.9812C26.6063 18.9252 26.6491 18.8436 26.6584 18.7366L26.6729 18.5688L25.8225 18.4951C25.7917 18.4924 25.7671 18.5007 25.7489 18.52C25.7308 18.5394 25.7196 18.5731 25.7154 18.6213L25.6867 18.9525C25.6555 19.3122 25.867 19.5394 26.3212 19.6341L26.3121 19.7383L25.5184 19.633L25.6713 17.87L25.7797 17.8794L25.7671 18.0254C25.7621 18.0823 25.7685 18.1232 25.7863 18.1481C25.8041 18.1729 25.8317 18.187 25.8694 18.1902L27.5644 18.3372C27.602 18.3405 27.6309 18.3328 27.6509 18.3141C27.671 18.2955 27.6829 18.2645 27.6867 18.2211L27.7019 18.0461L27.8103 18.0555Z" fill="#0C2B56"/>
<path d="M8.61648 25.7624L8.83863 25.7095L8.91774 25.7801L8.40359 26.37L8.33206 26.3062C8.44697 26.0871 8.49724 25.8973 8.48288 25.7367C8.46851 25.5761 8.40425 25.4449 8.2901 25.3431C8.19473 25.2581 8.09127 25.2171 7.97971 25.2201C7.86815 25.2231 7.77566 25.2658 7.70225 25.3481C7.65652 25.3994 7.628 25.4547 7.61666 25.5139C7.60533 25.5732 7.61181 25.6354 7.63612 25.7005C7.66042 25.7656 7.72392 25.8685 7.8266 26.0093C7.97028 26.2074 8.06035 26.3583 8.09682 26.4621C8.13328 26.566 8.14233 26.6638 8.12396 26.7557C8.10559 26.8476 8.06034 26.934 7.98822 27.0149C7.85942 27.1594 7.70409 27.2358 7.52224 27.2442C7.34038 27.2526 7.17251 27.1882 7.01863 27.051C6.85318 26.9036 6.75706 26.722 6.73027 26.5062L6.47451 26.5466L6.39648 26.477L6.94998 25.8561L7.02801 25.9256C6.90573 26.1239 6.85322 26.3195 6.87048 26.5125C6.88773 26.7055 6.96247 26.861 7.09468 26.9788C7.2016 27.0741 7.31702 27.1203 7.44092 27.1173C7.56481 27.1143 7.66701 27.0676 7.74751 26.9773C7.79323 26.926 7.82068 26.8698 7.82984 26.8086C7.83901 26.7474 7.82789 26.6791 7.79649 26.6038C7.76508 26.5285 7.68557 26.4003 7.55795 26.2191C7.41829 26.0194 7.3395 25.8649 7.32156 25.7556C7.29694 25.6014 7.34484 25.4567 7.46526 25.3216C7.59084 25.1807 7.73869 25.1054 7.90881 25.0956C8.07893 25.0859 8.23407 25.1435 8.37423 25.2684C8.44142 25.3283 8.49474 25.3972 8.53417 25.4751C8.57361 25.5531 8.60105 25.6488 8.61648 25.7624ZM10.1017 26.6219L10.1829 26.6754L9.74707 28.7399C9.72932 28.8232 9.76046 28.8912 9.8405 28.9439L9.89628 28.9806L9.83642 29.0715L9.12094 28.6007L9.18079 28.5097L9.23779 28.5472C9.31217 28.5962 9.37004 28.6227 9.4114 28.6267C9.43987 28.6293 9.46182 28.6188 9.47725 28.5953C9.48629 28.5816 9.49304 28.5652 9.49749 28.5461L9.59892 28.0672L8.89071 27.6011L8.66338 27.7643C8.60325 27.8081 8.56201 27.847 8.53966 27.881C8.51359 27.9206 8.50964 27.9667 8.5278 28.0192C8.54596 28.0717 8.59021 28.1211 8.66055 28.1674L8.72118 28.2073L8.66133 28.2982L8.01133 27.8705L8.07118 27.7795C8.14071 27.8253 8.20566 27.8463 8.26604 27.8426C8.32641 27.8389 8.40151 27.8057 8.49133 27.7432L10.1017 26.6219ZM9.83905 26.9444L8.99176 27.532L9.626 27.9494L9.83905 26.9444ZM11.0702 27.3134L12.0671 27.6688C12.2922 27.7491 12.4459 27.8614 12.528 28.0058C12.6101 28.1501 12.6217 28.3048 12.5629 28.4698C12.5041 28.6348 12.4045 28.7411 12.2643 28.7887C12.0713 28.8545 11.8645 28.8481 11.6438 28.7694L11.2829 28.6407L11.0366 29.3313C11.0223 29.3714 11.0217 29.4035 11.0346 29.4276C11.0524 29.4586 11.0827 29.4818 11.1255 29.497L11.3552 29.5789L11.3187 29.6815L10.3492 29.3358L10.3857 29.2333L10.5881 29.3054C10.6282 29.3197 10.6605 29.3222 10.6848 29.3129C10.7092 29.3037 10.7263 29.2853 10.736 29.258L11.3108 27.6458C11.3255 27.6048 11.3242 27.5709 11.307 27.5442C11.2898 27.5176 11.2483 27.4925 11.1827 27.4691L11.0337 27.416L11.0702 27.3134ZM11.3184 28.5409L11.5933 28.6389C11.7674 28.701 11.9059 28.7095 12.0088 28.6645C12.1116 28.6195 12.1928 28.5136 12.2523 28.3467C12.2939 28.2301 12.3085 28.1343 12.2961 28.0595C12.2838 27.9847 12.2494 27.9203 12.1931 27.8664C12.1369 27.8124 12.0322 27.7581 11.879 27.7035C11.7778 27.6674 11.7104 27.6542 11.6766 27.6637C11.6429 27.6733 11.6176 27.7018 11.6007 27.7492L11.3184 28.5409ZM13.0212 27.9235L13.9994 28.0762L13.9827 28.1837L13.8148 28.1575C13.7402 28.1459 13.6917 28.1479 13.6692 28.1635C13.6467 28.1791 13.6307 28.217 13.6213 28.2772L13.3707 29.8837C13.3607 29.9478 13.363 29.9893 13.3777 30.0082C13.3972 30.0338 13.4371 30.0513 13.4973 30.0607L13.6852 30.09L13.6685 30.1976L12.6902 30.045L12.707 29.9374L12.892 29.9663C12.9571 29.9764 13.0006 29.9734 13.0227 29.9573C13.0448 29.9411 13.0609 29.901 13.0709 29.837L13.3215 28.2305C13.3311 28.1693 13.3284 28.1301 13.3134 28.1131C13.29 28.0869 13.2425 28.0683 13.1708 28.0571L13.0044 28.0311L13.0212 27.9235ZM14.4574 28.141L16.1588 28.1536L16.1941 28.8783L16.0969 28.8776C16.0598 28.6489 15.9998 28.4887 15.9167 28.3971C15.8337 28.3056 15.7249 28.2593 15.5904 28.2583L15.1694 28.2552C15.1355 28.2549 15.1098 28.2639 15.0923 28.2822C15.0747 28.3004 15.0658 28.3284 15.0655 28.3662L15.0599 29.1312L15.2442 29.1326C15.343 29.1333 15.4233 29.0986 15.4853 29.0284C15.5472 28.9582 15.5812 28.85 15.5871 28.7039L15.6873 28.7047L15.68 29.6991L15.5798 29.6983C15.5762 29.5338 15.5434 29.4157 15.4815 29.3441C15.4196 29.2725 15.3349 29.2363 15.2275 29.2355L15.0591 29.2343L15.0528 30.0879C15.0526 30.1189 15.0628 30.1427 15.0835 30.1593C15.1042 30.1759 15.1387 30.1843 15.1871 30.1847L15.5196 30.1871C15.8806 30.1898 16.0903 29.961 16.1489 29.5007L16.2534 29.5015L16.2112 30.3011L14.4416 30.2881L14.4424 30.1792L14.589 30.1803C14.6461 30.1807 14.6864 30.1711 14.7097 30.1514C14.7331 30.1318 14.7449 30.103 14.7452 30.0653L14.7578 28.3639C14.758 28.3262 14.7481 28.298 14.7279 28.2795C14.7077 28.261 14.6758 28.2515 14.6323 28.2512L14.4566 28.2499L14.4574 28.141ZM16.4924 28.1666L16.9908 28.0474L18.6427 29.3867L18.3586 28.1993C18.33 28.0797 18.2816 27.9978 18.2132 27.9534C18.1507 27.9127 18.0699 27.9032 17.9706 27.9249L17.9452 27.819L18.6752 27.6444L18.7005 27.7503C18.6262 27.7681 18.5731 27.7917 18.5413 27.8212C18.5096 27.8507 18.4866 27.896 18.4724 27.9571C18.4581 28.0182 18.4588 28.0813 18.4743 28.1462L18.8713 29.8052L18.7385 29.8369L17.027 28.4418L17.3283 29.7012C17.3555 29.8151 17.4046 29.8931 17.4754 29.9354C17.5462 29.9777 17.6421 29.9853 17.763 29.9584L17.7883 30.0643L16.9921 30.2548L16.9667 30.1489C17.0656 30.1213 17.1368 30.0696 17.1804 29.994C17.224 29.9184 17.2351 29.8359 17.2137 29.7465L16.8749 28.3304L16.8448 28.3107C16.7856 28.2711 16.745 28.249 16.723 28.2443C16.6925 28.2377 16.6556 28.2395 16.6124 28.2499L16.5178 28.2725L16.4924 28.1666ZM18.8246 27.5582L20.3821 26.7778L20.7833 27.4844L20.6938 27.5293C20.4212 27.1322 20.1603 26.9961 19.9111 27.121C19.8609 27.1461 19.8308 27.172 19.8209 27.1986C19.811 27.2253 19.816 27.2585 19.8359 27.2983L20.6046 28.8324C20.6202 28.8636 20.6408 28.8819 20.6664 28.8875C20.6919 28.8931 20.7254 28.8855 20.767 28.8647L20.9604 28.7678L21.0091 28.8652L20.1175 29.312L20.0687 29.2146L20.2893 29.104C20.3187 29.0893 20.3376 29.0707 20.3458 29.0482C20.354 29.0257 20.352 29.0023 20.3399 28.9781L19.5601 27.4219C19.5436 27.389 19.5212 27.3691 19.4929 27.3622C19.4645 27.3553 19.4283 27.3629 19.3841 27.385C19.2587 27.4479 19.1837 27.5596 19.1591 27.7202C19.1389 27.8527 19.1663 28.0316 19.2414 28.257L19.1467 28.3045L18.8246 27.5582ZM20.6393 26.5596L21.4377 25.9741L21.5021 26.0619L21.3651 26.1624C21.3042 26.207 21.2714 26.2428 21.2665 26.2698C21.2617 26.2967 21.2773 26.3348 21.3134 26.3839L22.2749 27.6951C22.3133 27.7474 22.3443 27.775 22.3681 27.778C22.4 27.7822 22.4405 27.7663 22.4897 27.7302L22.643 27.6177L22.7074 27.7055L21.909 28.291L21.8447 28.2032L21.9957 28.0925C22.0487 28.0536 22.0774 28.0206 22.0815 27.9935C22.0857 27.9665 22.0686 27.9268 22.0302 27.8745L21.0687 26.5634C21.0321 26.5134 21.0024 26.4878 20.9798 26.4863C20.9448 26.4844 20.898 26.5049 20.8395 26.5478L20.7037 26.6474L20.6393 26.5596ZM22.4835 25.0233L22.5561 24.9585L24.4391 25.9107C24.515 25.9493 24.5887 25.9367 24.6602 25.8729L24.71 25.8284L24.7825 25.9096L24.1435 26.4799L24.071 26.3987L24.1219 26.3533C24.1883 26.294 24.2288 26.2449 24.2434 26.206C24.2531 26.1791 24.2487 26.1552 24.23 26.1342C24.219 26.122 24.2049 26.1112 24.1876 26.102L23.7509 25.8808L23.1183 26.4453L23.2176 26.707C23.2445 26.7764 23.2715 26.8262 23.2985 26.8566C23.3301 26.8919 23.3736 26.9076 23.429 26.9036C23.4844 26.8995 23.5435 26.8695 23.6063 26.8134L23.6605 26.7651L23.733 26.8463L23.1524 27.3644L23.08 27.2832C23.142 27.2278 23.1791 27.1704 23.191 27.1111C23.2029 27.0518 23.1902 26.9707 23.1529 26.8678L22.4835 25.0233ZM22.7276 25.36L23.0776 26.3299L23.644 25.8244L22.7276 25.36Z" fill="#0C2B56"/>
<path d="M6.40991 23.4723C6.40991 23.5699 6.39068 23.6666 6.35333 23.7567C6.31598 23.8469 6.26123 23.9288 6.19221 23.9979C6.12319 24.0669 6.04125 24.1216 5.95107 24.159C5.86089 24.1963 5.76423 24.2156 5.66662 24.2156C5.56901 24.2156 5.47236 24.1963 5.38218 24.159C5.292 24.1216 5.21006 24.0669 5.14104 23.9979C5.07202 23.9288 5.01727 23.8469 4.97992 23.7567C4.94257 23.6666 4.92334 23.5699 4.92334 23.4723C4.92334 23.3747 4.94257 23.278 4.97992 23.1878C5.01727 23.0977 5.07202 23.0157 5.14104 22.9467C5.21006 22.8777 5.292 22.8229 5.38218 22.7856C5.47236 22.7482 5.56901 22.729 5.66662 22.729C5.76423 22.729 5.86089 22.7482 5.95107 22.7856C6.04125 22.8229 6.12319 22.8777 6.19221 22.9467C6.26123 23.0157 6.31598 23.0977 6.35333 23.1878C6.39068 23.278 6.40991 23.3747 6.40991 23.4723Z" fill="#0C2B56"/>
<path d="M26.2502 23.2975C26.2502 23.3951 26.231 23.4917 26.1937 23.5819C26.1563 23.6721 26.1016 23.754 26.0325 23.8231C25.9635 23.8921 25.8816 23.9468 25.7914 23.9842C25.7012 24.0215 25.6046 24.0408 25.507 24.0408C25.4093 24.0408 25.3127 24.0215 25.2225 23.9842C25.1323 23.9468 25.0504 23.8921 24.9814 23.8231C24.9124 23.754 24.8576 23.6721 24.8203 23.5819C24.7829 23.4917 24.7637 23.3951 24.7637 23.2975C24.7637 23.1999 24.7829 23.1032 24.8203 23.013C24.8576 22.9229 24.9124 22.8409 24.9814 22.7719C25.0504 22.7029 25.1323 22.6481 25.2225 22.6108C25.3127 22.5734 25.4093 22.5542 25.507 22.5542C25.6046 22.5542 25.7012 22.5734 25.7914 22.6108C25.8816 22.6481 25.9635 22.7029 26.0325 22.7719C26.1016 22.8409 26.1563 22.9229 26.1937 23.013C26.231 23.1032 26.2502 23.1999 26.2502 23.2975Z" fill="#0C2B56"/>
</svg>
