<svg width="120" height="119" viewBox="0 0 120 119" fill="none" xmlns="http://www.w3.org/2000/svg">
<g id="Group 64">
<g id="layer2">
<path id="path3173" d="M52.9265 5.58992C57.1203 5.01546 55.4585 0.498145 59.6915 0.500001C64.1959 0.501975 62.6516 5.03152 67.1205 5.5961C71.3201 6.12665 70.8841 1.33316 74.9724 2.43054C79.3228 3.59827 76.6587 7.57376 80.8292 9.27573C84.7484 10.8752 85.5679 6.13215 89.2329 8.25026C93.1328 10.5042 89.5305 13.6547 93.1184 16.3781C96.4901 18.9374 98.5093 14.5681 101.501 17.5626C104.685 20.7491 100.39 22.8599 103.151 26.4191C105.745 29.7638 108.826 26.066 110.941 29.7328C113.192 33.6348 108.497 34.5621 110.242 38.7145C111.883 42.6168 115.816 39.8425 116.91 43.9317C118.074 48.2831 113.299 47.9637 113.91 52.4265C114.485 56.6203 119.002 54.9585 119 59.1915C118.998 63.6959 114.468 62.1516 113.904 66.6204C113.373 70.8201 118.167 70.3841 117.069 74.4724C115.902 78.8228 111.926 76.1587 110.224 80.3292C108.625 84.2484 113.368 85.0679 111.25 88.7328C108.996 92.6328 105.845 89.0305 103.122 92.6184C100.563 95.9901 104.932 98.0093 101.937 101.001C98.7509 104.185 96.6401 99.89 93.0809 102.651C89.7362 105.245 93.434 108.326 89.7672 110.441C85.8652 112.692 84.9379 107.997 80.7855 109.742C76.8832 111.383 79.6575 115.316 75.5683 116.41C71.2169 117.574 71.5363 112.799 67.0735 113.41C62.8797 113.985 64.5415 118.502 60.3085 118.5C55.8041 118.498 57.3485 113.968 52.8796 113.404C48.6799 112.873 49.1159 117.667 45.0277 116.569C40.6772 115.402 43.3413 111.426 39.1708 109.724C35.2516 108.125 34.4321 112.868 30.7672 110.75C26.8672 108.496 30.4695 105.345 26.8816 102.622C23.5099 100.063 21.4907 104.432 18.4988 101.437C15.3151 98.2509 19.61 96.1401 16.8493 92.5809C14.2549 89.2362 11.1736 92.934 9.05874 89.2672C6.80824 85.3652 11.5031 84.4379 9.75763 80.2855C8.11729 76.3832 4.18401 79.1575 3.09022 75.0683C1.9263 70.7169 6.70122 71.0363 6.08992 66.5735C5.51546 62.3797 0.998145 64.0415 1 59.8085C1.00197 55.3041 5.53152 56.8485 6.0961 52.3796C6.62665 48.1799 1.83316 48.6159 2.93054 44.5277C4.09827 40.1772 8.07376 42.8413 9.77573 38.6708C11.3752 34.7516 6.63215 33.9321 8.75026 30.2672C11.0042 26.3672 14.1547 29.9695 16.8781 26.3816C19.4374 23.0099 15.0681 20.9907 18.0626 17.9988C21.2491 14.8151 23.3599 19.11 26.9191 16.3493C30.2638 13.7548 26.566 10.6736 30.2328 8.55874C34.1348 6.30824 35.0621 11.0031 39.2145 9.25763C43.1168 7.61729 40.3425 3.68401 44.4317 2.59022C48.7832 1.4263 48.4637 6.20122 52.9265 5.58992Z" stroke="#082144" stroke-width="0.518182"/>
<path id="path3196" d="M111.442 59.8234C111.442 73.5252 105.999 86.6659 96.3101 96.3545C86.6214 106.043 73.4808 111.486 59.779 111.486C46.0772 111.486 32.9365 106.043 23.2479 96.3545C13.5592 86.6659 8.11621 73.5252 8.11621 59.8234C8.11621 46.1216 13.5592 32.981 23.2479 23.2923C32.9365 13.6037 46.0772 8.16064 59.779 8.16064C73.4808 8.16064 86.6214 13.6037 96.3101 23.2923C105.999 32.981 111.442 46.1216 111.442 59.8234Z" stroke="#082144" stroke-width="0.518182"/>
</g>
<g id="layer3">
<path id="path5242" d="M59.5478 21.0903C38.1977 21.0903 20.8511 38.4369 20.8511 59.7871C20.8511 81.1372 38.1977 98.4524 59.5478 98.4524C80.8979 98.4524 98.2131 81.1372 98.2131 59.7871C98.2131 38.4369 80.8979 21.0903 59.5478 21.0903ZM59.6419 37.3787C62.4844 37.3322 65.2996 37.5194 68.1157 38.132L69.12 39.1362L70.1243 38.132H74.1728C74.8232 41.0424 74.691 44.0618 74.1728 47.1392H70.1557L69.1514 46.1663L68.1157 47.1392C62.5196 47.8201 56.8375 47.7973 51.0741 47.1392L50.0698 46.1663L49.0655 47.1392H45.0483C44.3314 44.1583 44.4275 41.1547 45.0483 38.132H49.0341L50.0698 39.1362L51.0741 38.132C53.9317 37.7055 56.7995 37.4253 59.6419 37.3787ZM58.261 48.8967H61.6505C62.5029 48.8967 63.2582 51.0386 63.7533 54.3262L91.5911 54.232C85.7859 73.9779 74.475 87.58 60.2382 98.1699C43.6591 87.3129 33.9206 72.2385 28.6344 54.4517L56.1583 54.3576C56.6533 51.0508 57.4058 48.8967 58.261 48.8967Z" stroke="#082144" stroke-width="0.518182"/>
<path id="path5246" fill-rule="evenodd" clip-rule="evenodd" d="M59.7986 22.126C50.1688 30.9915 40.2796 39.3457 25.8723 42.9023C26.6132 46.8608 27.5248 50.7193 28.6341 54.4517L56.1581 54.3576C56.1753 54.2423 56.203 54.1561 56.2208 54.0437C56.3081 53.4932 56.4018 52.9806 56.5033 52.5059C56.5683 52.2004 56.6214 51.8988 56.6916 51.6271C56.7304 51.4783 56.7769 51.3257 56.8171 51.1878C56.8714 51.0004 56.9172 50.8208 56.9741 50.6542C56.982 50.6311 56.9975 50.6141 57.0054 50.5915C57.0772 50.3855 57.1496 50.1975 57.2251 50.0265C57.3045 49.8467 57.3931 49.6945 57.4762 49.5558C57.5586 49.4183 57.6416 49.3052 57.7273 49.2105C57.8195 49.1087 57.9142 49.0401 58.0097 48.9909C58.0947 48.947 58.1735 48.8967 58.2608 48.8967H61.6503C61.744 48.8967 61.8416 48.9415 61.9328 48.9909C61.9423 48.9963 61.9547 48.9849 61.9641 48.9909C62.0313 49.0298 62.0869 49.1145 62.1525 49.1792C62.1897 49.2176 62.2413 49.2266 62.278 49.2733C62.3102 49.3122 62.3404 49.3539 62.3721 49.3989C62.4422 49.501 62.4928 49.6129 62.5604 49.7441C62.6519 49.9175 62.7249 50.1174 62.8115 50.3404C62.8363 50.4042 62.8813 50.461 62.9057 50.5287C62.9758 50.7252 63.0276 50.9289 63.094 51.1564C63.1036 51.1892 63.1158 51.2171 63.1254 51.2505C63.1473 51.3278 63.1666 51.4211 63.1881 51.5016C63.269 51.8039 63.3337 52.1597 63.4078 52.5059C63.5264 53.0603 63.6541 53.6694 63.753 54.3262L91.5908 54.232C92.5746 50.8858 93.4158 47.3706 94.0702 43.6555C82.6112 39.4031 69.3606 31.9698 59.7986 22.126ZM59.6417 37.3787C62.4842 37.3322 65.2994 37.5194 68.1155 38.1319L69.1197 39.1362L70.124 38.1319H74.1726C74.8229 41.0424 74.6908 44.0618 74.1726 47.1392H70.1554L69.1511 46.1663L68.1155 47.1392C62.5194 47.8201 56.8373 47.7973 51.0738 47.1392L50.0695 46.1663L49.0652 47.1392H45.0481C44.3312 44.1582 44.4273 41.1547 45.0481 38.1319H49.0339L50.0695 39.1362L51.0738 38.1319C53.9315 37.7055 56.7993 37.4252 59.6417 37.3787Z" fill="#082144" stroke="#082144" stroke-width="0.518182"/>
<path id="rect4806" d="M61.6564 48.9023H58.2717C56.7779 48.9023 55.5669 55.4035 55.5669 63.4232V78.874C55.5669 86.8936 56.7779 93.3948 58.2717 93.3948H61.6564C63.1503 93.3948 64.3613 86.8936 64.3613 78.874V63.4232C64.3613 55.4035 63.1503 48.9023 61.6564 48.9023Z" stroke="#082144" stroke-width="0.518182"/>
<path id="rect4800" d="M50.0706 40.7812H49.9818C49.7715 40.7812 49.6011 41.6334 49.6011 42.6846V42.6846C49.6011 43.7358 49.7715 44.5879 49.9818 44.5879H50.0706C50.2808 44.5879 50.4513 43.7358 50.4513 42.6846V42.6846C50.4513 41.6334 50.2808 40.7812 50.0706 40.7812Z" stroke="#082144" stroke-width="1.03636"/>
<path id="use2406" d="M69.1384 40.7812H69.0497C68.8394 40.7812 68.6689 41.6334 68.6689 42.6846V42.6846C68.6689 43.7358 68.8394 44.5879 69.0497 44.5879H69.1384C69.3487 44.5879 69.5191 43.7358 69.5191 42.6846V42.6846C69.5191 41.6334 69.3487 40.7812 69.1384 40.7812Z" stroke="#082144" stroke-width="1.03636"/>
<path id="path4767" d="M44.5513 60.6728V68.906M44.5481 68.9026C41.926 67.4091 39.2562 67.3467 36.5071 68.9026V60.5638C39.2562 58.521 41.9379 58.636 44.56 60.665C47.3091 58.6282 49.967 58.636 52.5891 60.6591V68.9026C49.967 67.4091 47.2972 67.3467 44.5481 68.9026Z" stroke="#082144" stroke-width="0.518182"/>
<path id="use4778" d="M75.7532 60.7167V68.95M75.75 68.9465C73.1279 67.4531 70.4581 67.3906 67.709 68.9465V60.6077C70.4581 58.565 73.1398 58.68 75.7619 60.709C78.511 58.6722 81.1689 58.68 83.791 60.703V68.9465C81.1689 67.4531 78.4991 67.3906 75.75 68.9465Z" stroke="#082144" stroke-width="0.518182"/>
</g>
<g id="layer4">
<path id="text5201" d="M11.3337 67.1204L10.9649 62.8465C10.8816 61.8811 11.0369 61.1254 11.4308 60.5795C11.8248 60.0337 12.3754 59.7302 13.0829 59.6692C13.7903 59.6081 14.3499 59.7961 14.7617 60.2331C15.3294 60.8338 15.654 61.6071 15.7356 62.553L15.8691 64.1007L18.8298 63.8453C19.0018 63.8304 19.1214 63.7788 19.1886 63.6903C19.2729 63.5728 19.3072 63.4221 19.2913 63.2384L19.2063 62.2535L19.646 62.2156L20.0047 66.3723L19.565 66.4102L19.4901 65.5425C19.4753 65.3705 19.4302 65.2474 19.3549 65.1732C19.2796 65.099 19.1833 65.0669 19.066 65.0771L12.1539 65.6734C11.978 65.6886 11.8553 65.7504 11.7859 65.8588C11.7165 65.9671 11.694 66.162 11.7182 66.4434L11.7734 67.0825L11.3337 67.1204ZM15.4412 64.1377L15.3395 62.9592C15.2751 62.2127 15.0733 61.6877 14.734 61.3843C14.3948 61.0808 13.8676 60.9599 13.1523 61.0216C12.652 61.0648 12.2744 61.1722 12.0195 61.3438C11.7646 61.5155 11.585 61.7505 11.4808 62.0489C11.3766 62.3473 11.3529 62.8248 11.4095 63.4814C11.447 63.9153 11.5117 64.1863 11.6037 64.2945C11.6957 64.4027 11.8434 64.4481 12.0466 64.4305L15.4412 64.1377ZM10.7124 57.2915L11.2137 52.8237C11.3108 51.9582 11.583 51.3088 12.0304 50.8754C12.4777 50.442 13.0211 50.2612 13.6604 50.3329C14.0425 50.3758 14.372 50.5085 14.6491 50.731C14.9261 50.9536 15.1333 51.2532 15.2706 51.6298C15.408 52.0064 15.4728 52.5812 15.465 53.354C15.6796 52.8136 15.8718 52.4463 16.0416 52.2522C16.2115 52.0581 16.4195 51.9107 16.6656 51.81C16.9118 51.7093 17.4008 51.6171 18.1326 51.5334C18.6565 51.4738 19.0194 51.3882 19.2214 51.2766C19.377 51.1915 19.4614 51.0904 19.4745 50.9734C19.4881 50.8526 19.4119 50.7305 19.2461 50.6073C19.0804 50.4841 18.7746 50.3857 18.3289 50.312L18.3735 49.9143C19.6907 50.1371 20.2986 50.7007 20.1971 51.6052C20.1652 51.8898 20.0654 52.1283 19.8977 52.3207C19.7301 52.5131 19.5 52.6461 19.2075 52.7199C18.9878 52.7782 18.4258 52.8079 17.5217 52.8091C16.9966 52.8094 16.6178 52.8606 16.3853 52.9628C16.1528 53.065 15.9551 53.2432 15.7924 53.4973C15.6297 53.7515 15.5273 54.0657 15.4853 54.4399L15.4059 55.1475L18.8035 55.5287C18.9477 55.5449 19.0533 55.5193 19.1201 55.4517C19.2046 55.3665 19.2581 55.2244 19.2804 55.0256L19.3735 54.1952L19.8121 54.2444L19.3614 58.2619L18.9228 58.2127L19.0179 57.3647C19.0389 57.1776 19.0173 57.036 18.9531 56.94C18.8888 56.844 18.7924 56.7887 18.6637 56.7743L11.7516 55.9988C11.6035 55.9821 11.4873 56.0145 11.4032 56.0959C11.319 56.1772 11.2667 56.3095 11.2461 56.4927L11.151 57.3407L10.7124 57.2915ZM14.9849 55.1003L15.0997 54.0769C15.1767 53.3908 15.1073 52.8392 14.8916 52.4222C14.6758 52.0052 14.2366 51.7595 13.5738 51.6851C13.1177 51.634 12.7489 51.6666 12.4674 51.783C12.1859 51.8995 11.9831 52.0712 11.8589 52.298C11.7348 52.5249 11.6335 52.9873 11.5552 53.6851C11.5036 54.1451 11.5039 54.4334 11.5559 54.5497C11.608 54.6661 11.712 54.733 11.868 54.7505L14.9849 55.1003ZM13.441 42.3505C13.6834 41.6581 14.093 41.0731 14.6696 40.5954C15.2463 40.1177 15.9213 39.822 16.6947 39.7083C17.4682 39.5946 18.264 39.681 19.0823 39.9675C19.9006 40.254 20.579 40.6848 21.1175 41.2599C21.656 41.835 22.0042 42.4879 22.1619 43.2185C22.3197 43.9492 22.2806 44.6515 22.0447 45.3253C21.8139 45.9844 21.4169 46.5396 20.8537 46.9908C20.2905 47.442 19.6116 47.7249 18.817 47.8395C18.0225 47.9542 17.2161 47.8682 16.3978 47.5817C15.5906 47.2991 14.9214 46.8747 14.3902 46.3084C13.859 45.7421 13.5123 45.1001 13.35 44.3824C13.1877 43.6647 13.218 42.9874 13.441 42.3505ZM13.8998 42.4114C13.647 43.1334 13.7421 43.8234 14.1851 44.4815C14.628 45.1395 15.5271 45.7057 16.8823 46.1802C18.3522 46.6948 19.449 46.8211 20.1725 46.559C20.8961 46.2969 21.3765 45.8271 21.6137 45.1495C21.7796 44.6756 21.7977 44.2143 21.668 43.7657C21.5382 43.3171 21.2329 42.8891 20.7521 42.4818C20.2712 42.0744 19.5791 41.7126 18.6756 41.3963C17.6907 41.0515 16.8865 40.8821 16.2629 40.8883C15.6394 40.8944 15.1295 41.0359 14.7333 41.3129C14.3371 41.5898 14.0592 41.956 13.8998 42.4114ZM22.3289 28.1554L22.0475 27.2736L22.3084 26.9323L24.8495 28.8308L24.6137 29.1393C23.693 28.7416 22.9103 28.5963 22.2655 28.7033C21.6208 28.8103 21.1101 29.11 20.7336 29.6024C20.4191 30.0138 20.2849 30.4445 20.3309 30.8945C20.377 31.3445 20.5776 31.7053 20.9329 31.977C21.1542 32.1462 21.3863 32.2446 21.6293 32.2724C21.8723 32.3001 22.1216 32.255 22.3773 32.1369C22.633 32.0188 23.0298 31.7308 23.5676 31.2729C24.3244 30.6318 24.9071 30.2217 25.3156 30.0427C25.7241 29.8636 26.1168 29.7972 26.4938 29.8435C26.8708 29.8898 27.2338 30.0463 27.5828 30.3132C28.2061 30.7898 28.5624 31.3943 28.6518 32.1268C28.7411 32.8593 28.532 33.5574 28.0245 34.2213C27.4788 34.9349 26.774 35.3788 25.9101 35.5528L26.1513 36.5743L25.894 36.9109L23.2153 34.8629L23.4727 34.5263C24.3114 34.9601 25.1181 35.1127 25.893 34.9842C26.6678 34.8556 27.2733 34.5062 27.7093 33.9359C28.062 33.4746 28.2134 32.9941 28.1635 32.4942C28.1136 31.9943 27.8938 31.5954 27.5043 31.2976C27.283 31.1284 27.0473 31.0346 26.7972 31.0162C26.547 30.9978 26.2746 31.0635 25.9797 31.2134C25.6849 31.3633 25.1907 31.7238 24.4973 32.2948C23.7328 32.9202 23.1323 33.2857 22.6958 33.3915C22.0801 33.5381 21.4808 33.3885 20.8981 32.9429C20.2903 32.4783 19.9408 31.9036 19.8495 31.219C19.7581 30.5343 19.9436 29.8897 20.4059 29.2851C20.6275 28.9953 20.8898 28.7588 21.1927 28.5756C21.4958 28.3925 21.8745 28.2524 22.3289 28.1554ZM30.2682 20.5682L30.0382 19.6626L30.3221 19.4242L32.6903 22.0077L32.3883 22.2612C31.557 21.6734 30.841 21.3269 30.2404 21.2215C29.492 21.0865 28.8593 21.2359 28.3425 21.6697C27.7836 22.1389 27.5377 22.7704 27.6048 23.5642C27.6719 24.3581 28.2049 25.35 29.2036 26.5399C30.0435 27.5406 30.8854 28.1348 31.7294 28.3227C32.4453 28.4799 33.1127 28.2987 33.7317 27.7791C34.2725 27.3252 34.5806 26.7708 34.6559 26.116C34.7312 25.4613 34.5306 24.7372 34.0541 23.9437L34.3741 23.6751C34.9468 24.5466 35.1869 25.3848 35.0943 26.1898C35.0017 26.9948 34.6129 27.6849 33.9278 28.2599C33.3719 28.7265 32.7445 29.0149 32.0457 29.1251C31.3469 29.2353 30.6385 29.1449 29.9204 28.8539C29.2024 28.5628 28.581 28.1048 28.0564 27.4798C27.4991 26.8157 27.1192 26.0718 26.9169 25.248C26.7145 24.4242 26.7143 23.6779 26.9161 23.0091C27.1179 22.3404 27.4772 21.7891 27.9941 21.3553C28.2825 21.1132 28.6036 20.9282 28.9573 20.8003C29.3109 20.6725 29.7479 20.5951 30.2682 20.5682ZM33.1653 17.8082L36.6587 15.8327L36.876 16.2169L36.2767 16.5558C36.0103 16.7064 35.8609 16.8348 35.8286 16.941C35.7962 17.0472 35.8409 17.2078 35.9625 17.423L39.2066 23.16C39.336 23.3888 39.4478 23.5148 39.5421 23.5381C39.6685 23.5703 39.8393 23.5256 40.0544 23.4039L40.7254 23.0245L40.9427 23.4086L37.4493 25.3841L37.232 24.9999L37.8928 24.6262C38.125 24.4949 38.256 24.3758 38.2856 24.2689C38.3153 24.162 38.2655 23.9941 38.1361 23.7653L34.892 18.0283C34.7684 17.8098 34.6614 17.6923 34.571 17.6758C34.4309 17.6514 34.2329 17.7115 33.9767 17.8563L33.3826 18.1923L33.1653 17.8082ZM39.3838 14.4507L45.8981 12.1861L47.0179 14.9055L46.6455 15.035C46.1933 14.212 45.7464 13.6821 45.3047 13.4452C44.8631 13.2083 44.3848 13.1794 43.8697 13.3585L42.2578 13.9188C42.1281 13.9639 42.0422 14.0333 42 14.1269C41.9577 14.2205 41.9617 14.3395 42.012 14.484L43.0303 17.4132L43.7362 17.1678C44.1142 17.0364 44.3738 16.7946 44.515 16.4423C44.6563 16.09 44.6389 15.6308 44.4629 15.0649L44.8465 14.9315L46.1701 18.7389L45.7865 18.8722C45.549 18.2488 45.2634 17.8424 44.9297 17.6531C44.5961 17.4639 44.2236 17.4407 43.8122 17.5837L43.1675 17.8078L44.3037 21.0761C44.3449 21.1947 44.4163 21.2716 44.5178 21.3069C44.6194 21.3422 44.7628 21.3276 44.9481 21.2632L46.221 20.8207C47.6031 20.3402 48.0932 19.1814 47.6912 17.3441L48.0914 17.205L49.0172 20.3159L42.2417 22.6714L42.0967 22.2545L42.6581 22.0593C42.8767 21.9833 43.0173 21.8919 43.0798 21.785C43.1424 21.6781 43.1485 21.5524 43.0983 21.4079L40.8336 14.8937C40.7834 14.7491 40.7071 14.6552 40.6048 14.6119C40.5026 14.5685 40.368 14.5758 40.2013 14.6338L39.5287 14.8676L39.3838 14.4507ZM49.5848 11.2573L51.6513 11.0469L57.5659 17.318L57.0647 12.3945C57.0142 11.8989 56.8637 11.5435 56.6131 11.3285C56.384 11.131 56.0641 11.0492 55.6535 11.0831L55.6088 10.644L58.6355 10.3359L58.6802 10.775C58.3719 10.8064 58.146 10.8728 58.0025 10.9741C57.859 11.0755 57.7422 11.2451 57.6521 11.483C57.5619 11.7209 57.5306 11.9745 57.558 12.2438L58.2582 19.1226L57.7079 19.1786L51.5839 12.6508L52.1155 17.8728C52.1636 18.3451 52.3185 18.6852 52.5802 18.8932C52.8419 19.1012 53.2229 19.1836 53.7233 19.1406L53.768 19.5796L50.4662 19.9158L50.4215 19.4767C50.8336 19.419 51.1476 19.25 51.3636 18.9697C51.5795 18.6894 51.6687 18.3639 51.6309 17.9931L51.0332 12.1213L50.9229 12.026C50.7063 11.8352 50.5551 11.7244 50.4691 11.6937C50.3504 11.6506 50.2012 11.6382 50.0217 11.6564L49.6295 11.6964L49.5848 11.2573ZM61.461 10.4832L68.4815 11.2424L68.2975 14.5312L67.8938 14.4875C67.8365 12.536 67.2462 11.4995 66.1229 11.378C65.8967 11.3536 65.7375 11.3758 65.6452 11.4447C65.5529 11.5137 65.497 11.6379 65.4776 11.8173L64.7298 18.7325C64.7146 18.8729 64.7444 18.9807 64.8191 19.0558C64.8939 19.131 65.0249 19.1787 65.2121 19.1989L66.0838 19.2932L66.0363 19.732L62.0171 19.2973L62.0645 18.8586L63.0591 18.9661C63.1917 18.9805 63.2967 18.9583 63.3741 18.8996C63.4515 18.8408 63.4961 18.7569 63.5079 18.6477L64.2664 11.633C64.2825 11.4848 64.2497 11.3678 64.1683 11.2821C64.0868 11.1963 63.9466 11.1427 63.7477 11.1212C63.1821 11.06 62.6813 11.2761 62.2452 11.7696C61.8855 12.1766 61.5862 12.8466 61.3472 13.7796L60.9201 13.7334L61.461 10.4832ZM70.8912 11.8089L74.7689 12.8432L74.6551 13.2696L73.9899 13.0922C73.6942 13.0133 73.4977 13.0005 73.4003 13.0537C73.3028 13.1069 73.2223 13.2529 73.1586 13.4917L71.46 19.8597C71.3923 20.1137 71.3839 20.282 71.435 20.3646C71.5027 20.476 71.6559 20.5636 71.8947 20.6273L72.6396 20.826L72.5258 21.2524L68.6481 20.2181L68.7619 19.7917L69.4953 19.9873C69.7531 20.0561 69.93 20.0626 70.026 20.0071C70.1221 19.9515 70.2039 19.7967 70.2717 19.5427L71.9703 13.1747C72.035 12.9321 72.0408 12.7733 71.9877 12.6982C71.9048 12.5827 71.7213 12.4871 71.437 12.4112L70.7774 12.2353L70.8912 11.8089ZM80.7495 14.944L81.1086 15.1066L80.6701 23.6484C80.6517 23.9932 80.8194 24.2457 81.1732 24.406L81.4198 24.5177L81.2377 24.9197L78.0751 23.4872L78.2572 23.0852L78.5091 23.1993C78.8378 23.3482 79.0863 23.4177 79.2545 23.4077C79.37 23.3998 79.4513 23.344 79.4983 23.2404C79.5258 23.1796 79.5424 23.1096 79.5481 23.0304L79.6512 21.0486L76.5207 19.6307L75.7139 20.4281C75.5008 20.6417 75.3603 20.8235 75.2923 20.9736C75.213 21.1487 75.2263 21.3356 75.3323 21.5343C75.4382 21.7331 75.6467 21.9028 75.9576 22.0437L76.2256 22.165L76.0435 22.5671L73.1704 21.2657L73.3524 20.8637C73.6598 21.0029 73.9331 21.046 74.1725 20.9929C74.4119 20.9398 74.6916 20.7596 75.0116 20.4524L80.7495 14.944ZM79.9021 16.4013L76.8816 19.2903L79.6851 20.5601L79.9021 16.4013ZM93.4721 23.1411L93.7665 23.4034L90.8039 31.4269C90.6837 31.7506 90.7686 32.0416 91.0586 32.3L91.2607 32.48L90.9672 32.8096L88.3747 30.5002L88.6682 30.1707L88.8748 30.3546C89.1442 30.5947 89.3608 30.735 89.5243 30.7756C89.637 30.8024 89.7311 30.7734 89.8068 30.6884C89.8512 30.6386 89.8879 30.5768 89.917 30.5028L90.6055 28.6417L88.0394 26.3558L87.0317 26.8767C86.7647 27.0171 86.5764 27.1489 86.4668 27.2719C86.339 27.4155 86.296 27.5979 86.338 27.8191C86.3799 28.0404 86.5284 28.2645 86.7832 28.4915L87.0029 28.6872L86.7093 29.0168L84.3541 26.9188L84.6477 26.5893C84.8996 26.8137 85.1477 26.9362 85.3921 26.9568C85.6364 26.9774 85.957 26.8888 86.3541 26.6908L93.4721 23.1411ZM92.2291 24.2799L88.4853 26.1384L90.7834 28.1854L92.2291 24.2799ZM98.4364 28.3076L102.577 34.0278L100.012 36.0948L99.7742 35.7659C101.185 34.4158 101.558 33.2831 100.896 32.3679C100.762 32.1835 100.639 32.0802 100.526 32.0579C100.413 32.0356 100.284 32.0773 100.137 32.1831L94.5031 36.2616C94.3887 36.3444 94.3287 36.4387 94.323 36.5445C94.3172 36.6504 94.3696 36.7796 94.48 36.9321L94.9941 37.6423L94.6366 37.9011L92.2662 34.6263L92.6237 34.3676L93.2102 35.1779C93.2884 35.286 93.3753 35.349 93.4707 35.3671C93.5661 35.3852 93.6583 35.3621 93.7473 35.2977L99.4627 31.1606C99.5835 31.0732 99.6484 30.9705 99.6574 30.8526C99.6665 30.7346 99.6124 30.5946 99.495 30.4325C99.1615 29.9718 98.6655 29.7448 98.007 29.7517C97.4639 29.7574 96.7659 29.9841 95.9132 30.4319L95.6613 30.0839L98.4364 28.3076ZM99.1793 45.9021C99.0552 46.0221 98.8791 46.1702 98.6509 46.3466C98.2227 46.6747 97.9604 46.927 97.8641 47.1034C97.7679 47.2798 97.7508 47.4421 97.8129 47.5905C97.8705 47.728 97.997 47.8143 98.1924 47.8495C98.3879 47.8846 98.6663 47.8308 99.0275 47.688L99.1639 48.0137C98.511 48.2828 97.9785 48.3569 97.5664 48.236C97.1543 48.115 96.8641 47.8537 96.696 47.4521C96.5399 47.0793 96.5623 46.7138 96.7631 46.3554C96.964 45.997 97.4719 45.6026 98.2868 45.1721C98.1513 44.9906 98.0315 44.8111 97.9274 44.6336C97.8233 44.456 97.7356 44.2822 97.6644 44.1121C97.3827 43.439 97.2971 42.7444 97.4076 42.0283C97.5182 41.3121 97.8301 40.65 98.3431 40.0418C98.8561 39.4336 99.5234 38.9576 100.345 38.6137C101.51 38.1258 102.663 38.0874 103.805 38.4983C104.842 38.8722 105.574 39.5694 106.001 40.5899C106.288 41.2738 106.376 41.9704 106.267 42.6796C106.158 43.3888 105.851 44.0487 105.348 44.6593C104.844 45.2698 104.193 45.7425 103.393 46.0774C102.662 46.3834 101.955 46.5231 101.272 46.4965C100.589 46.4699 99.8912 46.2717 99.1793 45.9021ZM99.8148 45.3171C100.266 45.3579 100.725 45.3335 101.194 45.2437C101.662 45.1538 102.221 44.9733 102.868 44.7022C103.78 44.3204 104.46 43.919 104.906 43.498C105.353 43.0771 105.627 42.6326 105.729 42.1647C105.831 41.6968 105.787 41.2349 105.596 40.7789C105.408 40.3302 105.113 39.9806 104.71 39.7302C104.308 39.4798 103.796 39.3667 103.174 39.3908C102.553 39.415 101.781 39.6202 100.858 40.0065C100.206 40.2792 99.6723 40.573 99.2555 40.8878C98.8387 41.2027 98.4734 41.5746 98.1597 42.0037C98.3231 41.9268 98.4555 41.8671 98.5568 41.8247C99.0055 41.6368 99.4349 41.6261 99.8448 41.7926C100.255 41.9591 100.557 42.2757 100.753 42.7426C100.95 43.213 100.958 43.6733 100.776 44.1236C100.637 44.4624 100.317 44.8602 99.8148 45.3171ZM98.8459 44.938C99.4942 44.6581 99.9309 44.3753 100.156 44.0898C100.446 43.7259 100.501 43.3305 100.323 42.9035C100.18 42.5634 99.955 42.3302 99.647 42.204C99.339 42.0777 99.0131 42.0866 98.6693 42.2305C98.3292 42.3729 98.0631 42.6416 97.8713 43.0367C97.8667 43.3406 97.9235 43.6336 98.0416 43.9159C98.1325 44.133 98.2452 44.3261 98.3798 44.4952C98.5144 44.6643 98.6698 44.8119 98.8459 44.938ZM108.358 47.6429L108.945 51.619L108.508 51.6834L108.39 50.8858C108.359 50.6724 108.302 50.5281 108.219 50.453C108.137 50.3779 108.024 50.351 107.88 50.3721L103.019 51.0888C102.511 51.1638 102.133 51.2651 101.886 51.3927C101.522 51.5813 101.251 51.8681 101.073 52.2531C100.896 52.6381 100.849 53.1139 100.933 53.6805C101.049 54.4645 101.339 55.0323 101.806 55.3839C102.272 55.7355 102.845 55.8612 103.524 55.7611L107.477 55.1783C107.826 55.1268 108.087 55.0635 108.261 54.9884C108.434 54.9132 108.564 54.8226 108.652 54.7166C108.739 54.6105 108.797 54.484 108.825 54.3371C108.853 54.1902 108.843 53.9538 108.795 53.6278L109.231 53.5634L109.711 56.8177L109.274 56.8821L109.24 56.6492C109.186 56.2844 109.048 56.0272 108.826 55.8775C108.604 55.7279 108.306 55.6805 107.934 55.7355L103.701 56.3595C102.778 56.4957 102.03 56.3362 101.46 55.881C100.817 55.369 100.423 54.6202 100.278 53.6344C100.152 52.7805 100.174 52.0912 100.345 51.5665C100.515 51.0417 100.811 50.6352 101.233 50.347C101.553 50.1292 101.976 49.9817 102.5 49.9044L107.698 49.138C107.83 49.1185 107.927 49.0576 107.99 48.9552C108.052 48.8529 108.07 48.7105 108.043 48.5281L107.922 47.7072L108.358 47.6429ZM109.675 60.1169L109.079 66.9878L106.14 66.8982L106.174 66.5054C107.11 66.4291 107.776 66.2378 108.173 65.9316C108.57 65.6254 108.791 65.2006 108.839 64.6574L108.986 62.9572C108.998 62.8204 108.97 62.7136 108.902 62.6369C108.833 62.5601 108.723 62.5151 108.571 62.5018L105.481 62.2339L105.417 62.9785C105.382 63.3771 105.497 63.7129 105.76 63.9858C106.024 64.2587 106.45 64.4306 107.039 64.5013L107.004 64.9058L102.988 64.5575L103.023 64.153C103.689 64.1911 104.177 64.0966 104.486 63.8694C104.795 63.6422 104.968 63.3117 105.006 62.8779L105.065 62.1978L101.618 61.8989C101.493 61.888 101.393 61.9217 101.319 62C101.246 62.0783 101.2 62.2151 101.183 62.4105L101.067 63.7531C100.941 65.2109 101.798 66.1318 103.639 66.516L103.602 66.9381L100.385 66.5114L101.005 59.3649L101.444 59.4031L101.393 59.9952C101.373 60.2258 101.399 60.3914 101.471 60.4922C101.543 60.5929 101.655 60.6499 101.808 60.6631L108.678 61.259C108.831 61.2722 108.948 61.241 109.029 61.1654C109.111 61.0897 109.159 60.964 109.174 60.7881L109.236 60.0787L109.675 60.1169Z" fill="#082144"/>
<path id="text4817" d="M31.872 91.3573L32.7725 91.143L33.0931 91.4288L31.009 93.82L30.7191 93.5616C31.1849 92.6735 31.3887 91.9039 31.3304 91.2529C31.2722 90.6019 31.0117 90.0702 30.549 89.6578C30.1624 89.3132 29.7431 89.1469 29.2909 89.159C28.8386 89.1711 28.4637 89.3441 28.1662 89.6779C27.9808 89.8859 27.8652 90.1099 27.8193 90.3501C27.7733 90.5903 27.7996 90.8424 27.8981 91.1062C27.9966 91.3701 28.254 91.7874 28.6702 92.3581C29.2526 93.161 29.6177 93.7728 29.7655 94.1936C29.9134 94.6144 29.95 95.011 29.8756 95.3835C29.8011 95.7559 29.6177 96.1061 29.3253 96.4341C28.8033 97.0198 28.1737 97.3297 27.4365 97.3637C26.6994 97.3977 26.0189 97.1367 25.3951 96.5807C24.7245 95.9829 24.3349 95.2468 24.2263 94.3722L23.1896 94.536L22.8733 94.254L25.1169 91.737L25.4332 92.0189C24.9375 92.8226 24.7247 93.6156 24.7946 94.3979C24.8645 95.1802 25.1675 95.8102 25.7034 96.2879C26.1368 96.6743 26.6046 96.8613 27.1069 96.8492C27.6091 96.837 28.0233 96.6478 28.3496 96.2818C28.535 96.0739 28.6462 95.8459 28.6834 95.5978C28.7205 95.3498 28.6755 95.0731 28.5482 94.7679C28.4209 94.4626 28.0986 93.9428 27.5813 93.2084C27.0152 92.399 26.6958 91.7727 26.6231 91.3295C26.5233 90.7045 26.7174 90.1182 27.2056 89.5706C27.7146 88.9995 28.3139 88.6942 29.0035 88.6546C29.693 88.615 30.3219 88.8483 30.8901 89.3547C31.1624 89.5975 31.3785 89.8768 31.5384 90.1928C31.6982 90.5087 31.8094 90.8968 31.872 91.3573ZM37.8921 94.8412L38.2215 95.0579L36.4548 103.426C36.3828 103.764 36.5091 104.04 36.8335 104.253L37.0596 104.402L36.817 104.771L33.9168 102.862L34.1594 102.493L34.3904 102.646C34.6919 102.844 34.9265 102.951 35.0942 102.968C35.2096 102.978 35.2985 102.936 35.3611 102.841C35.3977 102.785 35.4251 102.718 35.4431 102.641L35.8543 100.699L32.9836 98.8103L32.0621 99.4719C31.8183 99.6496 31.6512 99.8073 31.5606 99.9449C31.4549 100.106 31.4389 100.292 31.5125 100.505C31.5862 100.718 31.7655 100.918 32.0506 101.106L32.2964 101.267L32.0538 101.636L29.419 99.9022L29.6616 99.5335C29.9435 99.719 30.2067 99.8042 30.4515 99.7892C30.6962 99.7741 31.0006 99.6398 31.3647 99.3863L37.8921 94.8412ZM36.8276 96.1483L33.3932 98.5304L35.964 100.222L36.8276 96.1483ZM41.8182 97.6443L45.8589 99.0849C46.7716 99.4103 47.3943 99.8656 47.7272 100.451C48.06 101.036 48.1071 101.663 47.8687 102.332C47.6302 103 47.2267 103.431 46.6581 103.624C45.8758 103.891 45.0376 103.865 44.1433 103.546L42.68 103.024L41.6821 105.824C41.6241 105.986 41.6214 106.116 41.674 106.214C41.7458 106.34 41.8686 106.434 42.0423 106.495L42.9734 106.827L42.8252 107.243L38.8954 105.842L39.0436 105.426L39.8639 105.719C40.0265 105.777 40.1572 105.787 40.256 105.749C40.3548 105.712 40.424 105.637 40.4635 105.527L42.7934 98.9916C42.8527 98.8253 42.8475 98.6881 42.7778 98.5799C42.7081 98.4718 42.5402 98.3702 42.2741 98.2754L41.67 98.06L41.8182 97.6443ZM42.8243 102.62L43.9384 103.017C44.6442 103.269 45.2056 103.303 45.6226 103.121C46.0395 102.938 46.3686 102.509 46.6097 101.833C46.7783 101.36 46.8375 100.972 46.7874 100.669C46.7372 100.365 46.598 100.104 46.3699 99.8856C46.1418 99.6668 45.7173 99.4468 45.0966 99.2255C44.6864 99.0792 44.413 99.0255 44.2763 99.0642C44.1396 99.1029 44.037 99.2184 43.9685 99.4105L42.8243 102.62ZM49.7264 100.117L53.6917 100.736L53.6236 101.172L52.9434 101.066C52.641 101.019 52.4442 101.027 52.353 101.09C52.2617 101.153 52.197 101.307 52.1589 101.551L51.143 108.063C51.1025 108.323 51.1119 108.491 51.1714 108.568C51.2506 108.671 51.4122 108.742 51.6564 108.78L52.4181 108.899L52.35 109.335L48.3848 108.717L48.4528 108.28L49.2028 108.397C49.4664 108.439 49.643 108.426 49.7326 108.361C49.8222 108.296 49.8873 108.133 49.9278 107.873L50.9438 101.361C50.9825 101.113 50.9715 100.955 50.9108 100.886C50.8162 100.78 50.6235 100.704 50.3328 100.659L49.6583 100.553L49.7264 100.117ZM55.5481 100.999L62.4446 101.05L62.5877 103.987L62.1935 103.984C62.0434 103.057 61.8 102.408 61.4634 102.037C61.1268 101.666 60.6858 101.478 60.1406 101.474L58.4341 101.462C58.2968 101.461 58.1925 101.497 58.1214 101.571C58.0502 101.645 58.0141 101.759 58.013 101.912L57.9901 105.013L58.7374 105.018C59.1376 105.021 59.4632 104.88 59.7145 104.596C59.9657 104.311 60.1033 103.873 60.1272 103.281L60.5333 103.284L60.5036 107.314L60.0976 107.311C60.0829 106.644 59.95 106.166 59.6991 105.876C59.4482 105.585 59.1051 105.439 58.6696 105.436L57.987 105.43L57.9616 108.891C57.9606 109.016 58.0021 109.112 58.0859 109.18C58.1698 109.247 58.3098 109.281 58.5059 109.283L59.8535 109.293C61.3167 109.304 62.167 108.376 62.4044 106.51L62.8281 106.514L62.6571 109.755L55.484 109.702L55.4873 109.261L56.0816 109.265C56.313 109.267 56.4761 109.228 56.5709 109.148C56.6656 109.068 56.7135 108.952 56.7147 108.799L56.7655 101.902C56.7666 101.749 56.7262 101.635 56.6444 101.56C56.5626 101.485 56.4334 101.447 56.2569 101.446L55.5449 101.44L55.5481 100.999ZM63.7969 101.103L65.8171 100.619L72.5132 106.048L71.3616 101.235C71.2456 100.75 71.0492 100.418 70.7722 100.239C70.5189 100.073 70.191 100.035 69.7886 100.123L69.6859 99.6937L72.6447 98.9858L72.7474 99.415C72.4459 99.4871 72.2309 99.583 72.1022 99.7025C71.9734 99.822 71.8802 100.006 71.8225 100.253C71.7648 100.501 71.7675 100.757 71.8305 101.02L73.4395 107.744L72.9015 107.873L65.9636 102.218L67.1851 107.323C67.2955 107.785 67.4943 108.101 67.7814 108.272C68.0684 108.444 68.457 108.475 68.9472 108.366L69.0499 108.795L65.8221 109.567L65.7194 109.138C66.1202 109.026 66.409 108.817 66.5857 108.51C66.7625 108.204 66.8075 107.869 66.7208 107.507L65.3473 101.766L65.2254 101.687C64.9853 101.526 64.8207 101.437 64.7314 101.418C64.608 101.391 64.4585 101.398 64.283 101.44L63.8996 101.532L63.7969 101.103ZM73.2505 98.6363L79.5638 95.473L81.19 98.3375L80.8269 98.5194C79.722 96.9098 78.6645 96.358 77.6544 96.8641C77.451 96.9661 77.3291 97.071 77.2889 97.1789C77.2486 97.2869 77.2689 97.4215 77.3497 97.5828L80.4656 103.801C80.5289 103.928 80.6123 104.002 80.7158 104.025C80.8193 104.048 80.9553 104.017 81.1236 103.932L81.9075 103.54L82.1053 103.934L78.4909 105.745L78.2932 105.351L79.1876 104.903C79.3068 104.843 79.3831 104.767 79.4163 104.676C79.4496 104.585 79.4416 104.49 79.3924 104.392L76.2317 98.0838C76.1649 97.9505 76.0741 97.8699 75.9591 97.8419C75.8442 97.814 75.6973 97.8448 75.5184 97.9344C75.0098 98.1892 74.7058 98.6421 74.6064 99.2931C74.5244 99.83 74.6355 100.555 74.9398 101.469L74.5558 101.662L73.2505 98.6363ZM80.6061 94.5888L83.8424 92.2155L84.1034 92.5714L83.5482 92.9785C83.3015 93.1595 83.1683 93.3046 83.1487 93.4138C83.1291 93.5231 83.1923 93.6774 83.3385 93.8766L87.2361 99.1913C87.3915 99.4033 87.5174 99.5153 87.6138 99.5273C87.7431 99.5444 87.9074 99.4798 88.1067 99.3337L88.7283 98.8778L88.9893 99.2337L85.753 101.607L85.492 101.251L86.1042 100.802C86.3193 100.644 86.4353 100.511 86.4522 100.401C86.469 100.291 86.3997 100.131 86.2443 99.9186L82.3467 94.604C82.1982 94.4015 82.0781 94.2974 81.9864 94.2917C81.8445 94.2839 81.6549 94.367 81.4176 94.541L80.8671 94.9447L80.6061 94.5888ZM88.0817 88.3612L88.3758 88.0986L96.0084 91.9583C96.3163 92.1147 96.6151 92.0636 96.9049 91.805L97.1068 91.6248L97.4007 91.954L94.8104 94.2658L94.5165 93.9365L94.7228 93.7523C94.9921 93.512 95.1562 93.313 95.2152 93.1552C95.2548 93.0463 95.2366 92.9494 95.1609 92.8645C95.1165 92.8148 95.0592 92.7712 94.9891 92.7339L93.2188 91.8372L90.6548 94.1255L91.0571 95.1861C91.1662 95.4674 91.2756 95.6695 91.3853 95.7924C91.5133 95.9358 91.6896 95.9993 91.9142 95.9829C92.1387 95.9665 92.3784 95.8447 92.633 95.6174L92.8525 95.4215L93.1464 95.7508L90.7932 97.8509L90.4993 97.5216C90.751 97.297 90.9011 97.0645 90.9494 96.8241C90.9978 96.5838 90.9464 96.2551 90.795 95.838L88.0817 88.3612ZM89.071 89.726L90.4897 93.6576L92.7858 91.6084L89.071 89.726Z" fill="#082144"/>
<path id="path5195" d="M22.9281 82.0744C22.9281 82.4701 22.8502 82.8619 22.6988 83.2274C22.5474 83.5929 22.3254 83.9251 22.0457 84.2048C21.7659 84.4846 21.4337 84.7065 21.0682 84.8579C20.7027 85.0094 20.3109 85.0873 19.9152 85.0873C19.5196 85.0873 19.1278 85.0094 18.7622 84.8579C18.3967 84.7065 18.0646 84.4846 17.7848 84.2048C17.505 83.9251 17.2831 83.5929 17.1317 83.2274C16.9803 82.8619 16.9023 82.4701 16.9023 82.0744C16.9023 81.6787 16.9803 81.287 17.1317 80.9214C17.2831 80.5559 17.505 80.2237 17.7848 79.944C18.0646 79.6642 18.3967 79.4423 18.7622 79.2909C19.1278 79.1395 19.5196 79.0615 19.9152 79.0615C20.3109 79.0615 20.7027 79.1395 21.0682 79.2909C21.4337 79.4423 21.7659 79.6642 22.0457 79.944C22.3254 80.2237 22.5474 80.5559 22.6988 80.9214C22.8502 81.287 22.9281 81.6787 22.9281 82.0744Z" fill="#082144"/>
<path id="use5197" d="M103.352 81.3644C103.352 81.7601 103.274 82.1519 103.123 82.5174C102.971 82.883 102.749 83.2151 102.469 83.4949C102.19 83.7747 101.858 83.9966 101.492 84.148C101.126 84.2994 100.735 84.3773 100.339 84.3773C99.9434 84.3773 99.5516 84.2994 99.1861 84.148C98.8205 83.9966 98.4884 83.7747 98.2086 83.4949C97.9289 83.2151 97.7069 82.883 97.5555 82.5174C97.4041 82.1519 97.3262 81.7601 97.3262 81.3644C97.3262 80.9688 97.4041 80.577 97.5555 80.2115C97.7069 79.8459 97.9289 79.5138 98.2086 79.234C98.4884 78.9542 98.8205 78.7323 99.1861 78.5809C99.5516 78.4295 99.9434 78.3516 100.339 78.3516C100.735 78.3516 101.126 78.4295 101.492 78.5809C101.858 78.7323 102.19 78.9542 102.469 79.234C102.749 79.5138 102.971 79.8459 103.123 80.2115C103.274 80.577 103.352 80.9688 103.352 81.3644Z" fill="#082144"/>
</g>
</g>
</svg>
